<?xml version="1.0" standalone="no"?>
<!DOCTYPE svg PUBLIC "-//W3C//DTD SVG 1.1//EN" "http://www.w3.org/Graphics/SVG/1.1/DTD/svg11.dtd">
<svg width="100%" height="100%" viewBox="0 0 270 185" version="1.1" xmlns="http://www.w3.org/2000/svg" xmlns:xlink="http://www.w3.org/1999/xlink" xml:space="preserve" style="fill-rule:evenodd;clip-rule:evenodd;stroke-linejoin:round;stroke-miterlimit:1.41421;">
    <path d="M24.2757,163.186C21.7007,163.802 19.1297,164.44 16.5627,165.098C14.0397,155.273 11.5167,145.446 8.9937,135.62C11.7237,134.918 14.4587,134.241 17.1977,133.585C18.1087,137.391 19.0177,141.197 19.9277,145.002C22.1577,144.469 24.3907,143.952 26.6267,143.451C25.7687,139.632 24.9117,135.814 24.0547,131.997C26.7997,131.379 29.5497,130.786 32.3027,130.215C34.3607,140.151 36.4187,150.084 38.4767,160.019C35.8877,160.554 33.3027,161.114 30.7217,161.693C29.8647,157.874 29.0077,154.057 28.1507,150.239C25.9457,150.733 23.7447,151.243 21.5467,151.769C22.4557,155.575 23.3657,159.381 24.2757,163.186" style="fill-rule:nonzero;"/>
    <path d="M57.078,156.549C54.475,156.981 51.875,157.435 49.278,157.911C47.45,147.932 45.621,137.953 43.792,127.974C46.555,127.468 49.321,126.986 52.089,126.525C53.752,136.532 55.414,146.541 57.078,156.549" style="fill-rule:nonzero;"/>
    <path d="M69.2601,152.27C67.9381,151.093 67.1571,149.405 66.8311,147.124C66.1171,142.117 65.4031,137.109 64.6891,132.102C64.3871,129.993 64.7951,128.264 65.7271,126.862C66.3911,125.892 67.2721,125.112 68.3781,124.571C69.3091,124.14 70.3061,123.834 71.5101,123.682C75.4491,123.182 79.3921,122.729 83.3401,122.323C83.6081,124.918 83.8741,127.513 84.1411,130.108C80.4071,130.493 76.6771,130.918 72.9511,131.387C73.5661,136.276 74.1811,141.166 74.7951,146.055C77.0101,145.777 79.2251,145.514 81.4421,145.265C81.2811,143.826 81.1201,142.385 80.9591,140.945C79.9891,141.053 79.0211,141.165 78.0521,141.278C77.8151,139.263 77.5781,137.249 77.3401,135.234C80.5841,134.852 83.8301,134.5 87.0791,134.183C87.6731,140.241 88.2651,146.299 88.8591,152.358C84.3461,152.799 79.8391,153.305 75.3371,153.875C74.2051,154.018 73.2241,153.972 72.2691,153.791C71.1281,153.549 70.1241,153.029 69.2601,152.27" style="fill-rule:nonzero;"/>
    <path d="M107.659,150.892C105.033,151.044 102.407,151.219 99.783,151.416C99.027,141.298 98.27,131.181 97.514,121.065C100.305,120.856 103.097,120.671 105.892,120.507C106.119,124.414 106.346,128.322 106.573,132.228C108.847,132.095 111.121,131.978 113.397,131.878C113.224,127.968 113.051,124.06 112.877,120.15C115.672,120.025 118.468,119.925 121.264,119.847C121.546,129.988 121.829,140.129 122.111,150.271C119.482,150.344 116.854,150.439 114.226,150.556C114.053,146.646 113.88,142.737 113.705,138.829C111.463,138.927 109.219,139.042 106.977,139.172C107.204,143.08 107.431,146.986 107.659,150.892" style="fill-rule:nonzero;"/>
    <path d="M166.445,128.438C164.612,128.325 162.778,128.221 160.943,128.127C160.692,133.049 160.44,137.97 160.189,142.891C161.97,142.982 163.748,143.083 165.527,143.192C165.834,138.275 166.138,133.356 166.445,128.438M168.49,150.752C167.592,150.996 166.619,151.104 165.48,151.032C160.959,150.747 156.433,150.526 151.908,150.37C152.258,140.231 152.608,130.092 152.958,119.953C157.772,120.119 162.588,120.354 167.396,120.656C168.605,120.733 169.619,120.975 170.527,121.344C171.711,121.817 172.637,122.54 173.359,123.465C174.415,124.898 174.874,126.722 174.692,129.02C174.295,134.061 173.898,139.105 173.502,144.148C173.334,146.271 172.584,147.869 171.434,149.046C170.622,149.857 169.656,150.441 168.49,150.752" style="fill-rule:nonzero;"/>
    <path d="M191.69,153.412C189.076,153.1 186.459,152.812 183.838,152.546C184.866,142.452 185.895,132.36 186.924,122.266C189.709,122.55 192.494,122.857 195.275,123.187C194.082,133.262 192.885,143.336 191.69,153.412" style="fill-rule:nonzero;"/>
    <path d="M223.848,127.401C226.675,127.901 229.497,128.424 232.318,128.971C227.517,138.375 222.886,147.836 218.423,157.351C215.563,156.846 212.702,156.368 209.835,155.917C208.708,145.467 207.407,135.016 205.929,124.565C208.785,124.963 211.634,125.388 214.484,125.837C214.967,132.881 215.386,139.925 215.744,146.964C218.384,140.424 221.084,133.904 223.848,127.401" style="fill-rule:nonzero;"/>
    <path d="M254.258,165.099C248.196,163.543 242.112,162.108 236.009,160.794C238.145,150.876 240.28,140.958 242.415,131.04C248.908,132.439 255.379,133.964 261.825,135.62C261.178,138.147 260.529,140.674 259.88,143.201C256.221,142.261 252.554,141.363 248.879,140.508C248.552,141.919 248.223,143.331 247.894,144.744C251.238,145.522 254.578,146.335 257.91,147.185C257.409,149.152 256.909,151.117 256.408,153.084C253.116,152.245 249.818,151.441 246.514,150.671C246.185,152.082 245.856,153.495 245.529,154.906C249.094,155.737 252.653,156.607 256.204,157.518C255.556,160.045 254.906,162.574 254.258,165.099" style="fill-rule:nonzero;"/>
    <path d="M96.7733,168.945C97.2113,168.945 97.5463,168.841 97.7813,168.633C98.0153,168.424 98.1333,168.149 98.1333,167.804L98.1333,167.78C98.1333,167.396 98.0103,167.108 97.7643,166.916C97.5183,166.723 97.1763,166.629 96.7383,166.629L94.9753,166.629L94.9753,168.945L96.7733,168.945ZM93.2003,165.026L96.8883,165.026C97.9103,165.026 98.6933,165.299 99.2393,165.843C99.7003,166.304 99.9303,166.922 99.9303,167.687L99.9303,167.712C99.9303,168.364 99.7713,168.896 99.4523,169.306C99.1333,169.717 98.7173,170.02 98.2013,170.213L100.173,173.093L98.0983,173.093L96.3693,170.51L96.3473,170.51L94.9753,170.51L94.9753,173.093L93.2003,173.093L93.2003,165.026Z" style="fill-rule:nonzero;"/>
    <path d="M106.258,165.026L112.332,165.026L112.332,166.606L108.009,166.606L108.009,168.241L111.813,168.241L111.813,169.821L108.009,169.821L108.009,171.514L112.389,171.514L112.389,173.093L106.258,173.093L106.258,165.026Z" style="fill-rule:nonzero;"/>
    <path d="M122.485,173.231C121.893,173.231 121.344,173.124 120.837,172.909C120.33,172.694 119.892,172.399 119.523,172.027C119.154,171.654 118.866,171.214 118.659,170.709C118.451,170.201 118.348,169.659 118.348,169.084L118.348,169.059C118.348,168.484 118.451,167.943 118.659,167.441C118.866,166.937 119.154,166.495 119.523,166.116C119.892,165.734 120.333,165.434 120.849,165.214C121.363,164.997 121.931,164.887 122.554,164.887C122.93,164.887 123.274,164.918 123.585,164.979C123.897,165.042 124.179,165.125 124.433,165.234C124.686,165.341 124.921,165.471 125.135,165.626C125.35,165.779 125.55,165.948 125.735,166.132L124.606,167.434C124.29,167.15 123.969,166.928 123.643,166.767C123.317,166.606 122.949,166.524 122.542,166.524C122.204,166.524 121.891,166.588 121.603,166.72C121.316,166.852 121.067,167.032 120.86,167.262C120.653,167.493 120.491,167.759 120.376,168.063C120.26,168.366 120.202,168.692 120.202,169.037L120.202,169.059C120.202,169.405 120.26,169.733 120.376,170.04C120.491,170.346 120.65,170.617 120.854,170.846C121.057,171.076 121.303,171.259 121.592,171.392C121.88,171.528 122.196,171.595 122.542,171.595C123.003,171.595 123.394,171.51 123.712,171.342C124.031,171.172 124.348,170.942 124.663,170.649L125.792,171.791C125.585,172.012 125.369,172.213 125.147,172.39C124.924,172.567 124.68,172.717 124.416,172.846C124.151,172.97 123.86,173.068 123.545,173.133C123.23,173.2 122.876,173.231 122.485,173.231" style="fill-rule:nonzero;"/>
    <path d="M135.875,171.596C136.229,171.596 136.555,171.53 136.855,171.4C137.155,171.269 137.41,171.088 137.623,170.858C137.833,170.627 137.999,170.361 138.118,170.058C138.236,169.754 138.294,169.429 138.294,169.084L138.294,169.06C138.294,168.715 138.236,168.387 138.118,168.08C137.999,167.773 137.829,167.504 137.61,167.274C137.392,167.043 137.132,166.861 136.833,166.726C136.532,166.593 136.207,166.525 135.853,166.525C135.491,166.525 135.163,166.589 134.868,166.721C134.571,166.853 134.318,167.033 134.106,167.263C133.895,167.493 133.73,167.76 133.611,168.064C133.492,168.367 133.433,168.693 133.433,169.037L133.433,169.06C133.433,169.406 133.492,169.734 133.611,170.04C133.73,170.347 133.899,170.617 134.119,170.847C134.337,171.076 134.594,171.26 134.89,171.393C135.187,171.529 135.515,171.596 135.875,171.596M135.853,173.232C135.23,173.232 134.658,173.122 134.135,172.902C133.613,172.686 133.162,172.389 132.782,172.015C132.401,171.645 132.105,171.206 131.894,170.702C131.683,170.2 131.577,169.659 131.577,169.084L131.577,169.06C131.577,168.485 131.685,167.944 131.9,167.442C132.115,166.938 132.413,166.495 132.793,166.117C133.173,165.735 133.626,165.435 134.152,165.215C134.679,164.997 135.253,164.888 135.875,164.888C136.498,164.888 137.07,164.997 137.593,165.215C138.115,165.435 138.567,165.732 138.948,166.104C139.327,166.477 139.622,166.914 139.834,167.419C140.046,167.921 140.152,168.462 140.152,169.037L140.152,169.06C140.152,169.636 140.044,170.175 139.83,170.679C139.613,171.184 139.315,171.625 138.935,172.005C138.554,172.386 138.1,172.686 137.576,172.902C137.049,173.122 136.474,173.232 135.853,173.232" style="fill-rule:nonzero;"/>
    <path d="M150.027,168.945C150.466,168.945 150.803,168.841 151.037,168.633C151.271,168.424 151.386,168.149 151.386,167.804L151.386,167.78C151.386,167.396 151.265,167.108 151.019,166.916C150.773,166.723 150.432,166.629 149.994,166.629L148.23,166.629L148.23,168.945L150.027,168.945ZM146.455,165.026L150.143,165.026C151.167,165.026 151.948,165.299 152.494,165.843C152.955,166.304 153.187,166.922 153.187,167.687L153.187,167.712C153.187,168.364 153.027,168.896 152.709,169.306C152.39,169.717 151.972,170.02 151.456,170.213L153.427,173.093L151.354,173.093L149.625,170.51L149.602,170.51L148.23,170.51L148.23,173.093L146.455,173.093L146.455,165.026Z" style="fill-rule:nonzero;"/>
    <path d="M162.66,171.491C163.02,171.491 163.351,171.434 163.651,171.318C163.951,171.202 164.205,171.038 164.417,170.823C164.628,170.608 164.795,170.355 164.912,170.062C165.032,169.769 165.093,169.444 165.093,169.084L165.093,169.059C165.093,168.706 165.032,168.38 164.912,168.08C164.795,167.78 164.628,167.522 164.417,167.307C164.205,167.093 163.951,166.927 163.651,166.806C163.351,166.687 163.02,166.629 162.66,166.629L161.29,166.629L161.29,171.491L162.66,171.491ZM159.514,165.026L162.66,165.026C163.289,165.026 163.867,165.128 164.394,165.333C164.921,165.534 165.375,165.817 165.754,166.179C166.136,166.54 166.428,166.965 166.636,167.451C166.842,167.94 166.948,168.47 166.948,169.037L166.948,169.059C166.948,169.629 166.842,170.157 166.636,170.649C166.428,171.141 166.136,171.569 165.754,171.929C165.375,172.29 164.921,172.574 164.394,172.782C163.867,172.99 163.289,173.095 162.66,173.095L159.514,173.095L159.514,165.026Z" style="fill-rule:nonzero;"/>
    <path d="M176.132,173.208C175.519,173.208 174.914,173.104 174.323,172.892C173.731,172.68 173.194,172.356 172.71,171.918L173.758,170.662C174.127,170.962 174.505,171.199 174.893,171.376C175.281,171.553 175.705,171.641 176.166,171.641C176.535,171.641 176.821,171.575 177.026,171.439C177.229,171.305 177.33,171.119 177.33,170.88L177.33,170.857C177.33,170.741 177.31,170.641 177.267,170.553C177.225,170.464 177.144,170.381 177.026,170.305C176.904,170.228 176.74,170.15 176.528,170.074C176.316,169.996 176.04,169.917 175.702,169.832C175.293,169.733 174.923,169.62 174.592,169.498C174.261,169.375 173.98,169.224 173.75,169.042C173.518,168.861 173.337,168.637 173.211,168.368C173.084,168.1 173.021,167.765 173.021,167.365L173.021,167.343C173.021,166.974 173.09,166.641 173.227,166.347C173.365,166.05 173.558,165.794 173.805,165.579C174.053,165.364 174.349,165.199 174.694,165.085C175.037,164.967 175.418,164.91 175.832,164.91C176.423,164.91 176.967,165 177.462,165.177C177.959,165.353 178.413,165.606 178.829,165.937L177.907,167.273C177.545,167.027 177.193,166.833 176.848,166.692C176.501,166.549 176.156,166.479 175.81,166.479C175.463,166.479 175.205,166.546 175.031,166.679C174.859,166.814 174.772,166.982 174.772,167.182L174.772,167.204C174.772,167.336 174.798,167.448 174.846,167.545C174.899,167.641 174.988,167.728 175.118,167.805C175.25,167.881 175.429,167.954 175.657,168.023C175.884,168.091 176.17,168.172 176.518,168.264C176.925,168.373 177.289,168.493 177.61,168.628C177.928,168.763 178.198,168.924 178.417,169.111C178.637,169.3 178.803,169.52 178.914,169.773C179.027,170.027 179.082,170.331 179.082,170.687L179.082,170.709C179.082,171.107 179.011,171.462 178.865,171.774C178.72,172.084 178.518,172.346 178.258,172.557C177.997,172.771 177.69,172.932 177.329,173.042C176.969,173.153 176.57,173.208 176.132,173.208" style="fill-rule:nonzero;"/>
    <path d="M119.233,180.025L120.429,180.025L120.429,182.402L122.636,180.025L124.081,180.025L121.866,182.332L124.182,185.463L122.745,185.463L121.058,183.147L120.429,183.8L120.429,185.463L119.233,185.463L119.233,180.025Z" style="fill-rule:nonzero;"/>
    <path d="M130.638,185.556C130.24,185.556 129.868,185.485 129.528,185.339C129.185,185.196 128.891,184.996 128.641,184.745C128.392,184.493 128.2,184.198 128.058,183.855C127.919,183.513 127.849,183.148 127.849,182.76L127.849,182.745C127.849,182.356 127.919,181.993 128.058,181.653C128.2,181.313 128.392,181.015 128.641,180.759C128.891,180.504 129.189,180.301 129.534,180.155C129.882,180.005 130.266,179.933 130.684,179.933C130.939,179.933 131.171,179.953 131.38,179.993C131.59,180.036 131.781,180.093 131.951,180.164C132.121,180.238 132.28,180.326 132.425,180.43C132.57,180.532 132.704,180.646 132.828,180.771L132.069,181.65C131.856,181.457 131.639,181.308 131.418,181.199C131.198,181.09 130.951,181.036 130.677,181.036C130.45,181.036 130.238,181.079 130.044,181.167C129.849,181.256 129.683,181.377 129.542,181.534C129.403,181.688 129.293,181.868 129.216,182.072C129.138,182.277 129.1,182.496 129.1,182.729L129.1,182.745C129.1,182.978 129.138,183.199 129.216,183.406C129.293,183.613 129.401,183.794 129.538,183.95C129.677,184.104 129.843,184.227 130.036,184.318C130.231,184.41 130.445,184.454 130.677,184.454C130.988,184.454 131.25,184.397 131.465,184.283C131.68,184.168 131.894,184.014 132.106,183.817L132.868,184.586C132.728,184.737 132.583,184.871 132.433,184.992C132.284,185.109 132.118,185.211 131.939,185.298C131.761,185.383 131.565,185.447 131.352,185.492C131.141,185.535 130.903,185.556 130.638,185.556" style="fill-rule:nonzero;"/>
    <path d="M137.01,180.025L138.299,180.025L139.73,182.324L141.159,180.025L142.449,180.025L142.449,185.463L141.267,185.463L141.267,181.912L139.737,184.235L139.705,184.235L138.19,181.936L138.19,185.463L137.01,185.463L137.01,180.025Z" style="fill-rule:nonzero;"/>
    <path d="M149.596,184.454C149.835,184.454 150.055,184.409 150.256,184.322C150.459,184.233 150.63,184.112 150.774,183.957C150.916,183.801 151.027,183.62 151.107,183.416C151.188,183.212 151.228,182.993 151.228,182.76L151.228,182.745C151.228,182.512 151.188,182.29 151.107,182.084C151.027,181.878 150.912,181.695 150.766,181.54C150.618,181.386 150.444,181.263 150.242,181.171C150.039,181.081 149.82,181.036 149.582,181.036C149.338,181.036 149.117,181.079 148.917,181.167C148.718,181.256 148.546,181.377 148.405,181.533C148.26,181.687 148.152,181.867 148.07,182.071C147.991,182.276 147.95,182.496 147.95,182.728L147.95,182.745C147.95,182.977 147.991,183.198 148.07,183.405C148.152,183.612 148.264,183.794 148.412,183.949C148.56,184.103 148.734,184.226 148.933,184.317C149.132,184.409 149.354,184.454 149.596,184.454M149.582,185.556C149.161,185.556 148.777,185.482 148.423,185.336C148.072,185.188 147.767,184.987 147.51,184.736C147.254,184.486 147.055,184.19 146.912,183.85C146.771,183.512 146.7,183.147 146.7,182.76L146.7,182.745C146.7,182.355 146.771,181.992 146.916,181.652C147.062,181.312 147.262,181.016 147.519,180.759C147.774,180.504 148.08,180.301 148.435,180.154C148.79,180.005 149.177,179.933 149.596,179.933C150.015,179.933 150.402,180.005 150.753,180.154C151.107,180.301 151.409,180.5 151.668,180.752C151.923,181.003 152.123,181.297 152.266,181.637C152.408,181.976 152.479,182.34 152.479,182.728L152.479,182.745C152.479,183.134 152.407,183.497 152.262,183.835C152.117,184.175 151.916,184.474 151.659,184.729C151.403,184.985 151.098,185.188 150.742,185.336C150.388,185.482 150.001,185.556 149.582,185.556" style="fill-rule:nonzero;"/>
    <path d="M7.974,153.352C7.974,155.554 6.189,157.338 3.987,157.338C1.784,157.338 0,155.554 0,153.352C0,151.15 1.784,149.365 3.987,149.365C6.189,149.365 7.974,151.15 7.974,153.352" style="fill-rule:nonzero;"/>
    <path d="M270.762,153.352C270.762,155.554 268.976,157.338 266.774,157.338C264.572,157.338 262.787,155.554 262.787,153.352C262.787,151.15 264.572,149.365 266.774,149.365C268.976,149.365 270.762,151.15 270.762,153.352" style="fill-rule:nonzero;"/>
    <path d="M128.886,146.258C128.838,146.258 128.79,146.247 128.745,146.224C128.593,146.146 128.531,145.958 128.609,145.806L139.258,124.906C139.336,124.754 139.523,124.693 139.676,124.771C139.83,124.849 139.89,125.036 139.812,125.189L129.163,146.088C129.108,146.196 128.998,146.258 128.886,146.258" style="fill-rule:nonzero;"/>
    <path d="M134.606,146.258C134.559,146.258 134.511,146.247 134.466,146.224C134.313,146.146 134.251,145.958 134.33,145.806L144.978,124.906C145.056,124.754 145.244,124.693 145.398,124.771C145.55,124.849 145.611,125.036 145.533,125.189L134.883,146.088C134.829,146.196 134.721,146.258 134.606,146.258" style="fill-rule:nonzero;"/>
    <path d="M144.631,126.584L138.91,126.584C138.738,126.584 138.6,126.444 138.6,126.271C138.6,126.102 138.738,125.962 138.91,125.962L144.631,125.962C144.802,125.962 144.943,126.102 144.943,126.271C144.943,126.444 144.802,126.584 144.631,126.584" style="fill-rule:nonzero;"/>
    <path d="M142.881,130.019L137.16,130.019C136.988,130.019 136.849,129.879 136.849,129.707C136.849,129.536 136.988,129.397 137.16,129.397L142.881,129.397C143.053,129.397 143.192,129.536 143.192,129.707C143.192,129.879 143.053,130.019 142.881,130.019" style="fill-rule:nonzero;"/>
    <path d="M141.131,133.454L135.41,133.454C135.238,133.454 135.1,133.315 135.1,133.143C135.1,132.972 135.238,132.832 135.41,132.832L141.131,132.832C141.303,132.832 141.442,132.972 141.442,133.143C141.442,133.315 141.303,133.454 141.131,133.454" style="fill-rule:nonzero;"/>
    <path d="M139.381,136.89L133.66,136.89C133.488,136.89 133.349,136.75 133.349,136.579C133.349,136.408 133.488,136.268 133.66,136.268L139.381,136.268C139.553,136.268 139.693,136.408 139.693,136.579C139.693,136.75 139.553,136.89 139.381,136.89" style="fill-rule:nonzero;"/>
    <path d="M137.63,140.324L131.909,140.324C131.738,140.324 131.598,140.185 131.598,140.014C131.598,139.843 131.738,139.703 131.909,139.703L137.63,139.703C137.801,139.703 137.942,139.843 137.942,140.014C137.942,140.185 137.801,140.324 137.63,140.324" style="fill-rule:nonzero;"/>
    <path d="M135.879,143.759L130.159,143.759C129.987,143.759 129.849,143.62 129.849,143.448C129.849,143.277 129.987,143.138 130.159,143.138L135.879,143.138C136.051,143.138 136.191,143.277 136.191,143.448C136.191,143.62 136.051,143.759 135.879,143.759" style="fill-rule:nonzero;"/>
    <path d="M142.745,87.1971C142.956,87.3731 143.078,87.4791 143.201,87.5851C143.306,87.4591 143.496,87.3241 143.486,87.2091C143.473,87.0651 143.292,86.9371 143.181,86.8031C143.06,86.9101 142.944,87.0171 142.745,87.1971M90.956,92.7341C90.625,92.9981 90.802,93.2491 90.909,93.4191C91.641,94.5901 92.225,95.1861 92.578,95.1401C92.037,94.3371 91.505,93.5491 90.956,92.7341M109.805,80.1061C109.752,80.1161 109.699,80.1261 109.646,80.1341C109.624,80.2471 109.572,80.3591 109.581,80.4661C109.627,81.0071 109.655,81.5551 109.752,82.0871C109.959,83.2131 110.126,84.3331 110.001,85.4821C109.986,85.6321 110.164,85.8011 110.253,85.9601C110.352,85.8231 110.489,85.6971 110.537,85.5431C110.587,85.3831 110.52,85.1901 110.557,85.0221C110.846,83.6871 110.388,82.4171 110.209,81.1251C110.16,80.7731 109.945,80.4451 109.805,80.1061M81.108,71.8101C80.888,71.0111 81.13,70.2401 80.679,69.5791C80.621,69.4931 80.66,69.3441 80.638,69.2261C80.59,68.9971 80.542,68.7661 80.474,68.5401C80.406,68.3141 80.326,68.0911 80.231,67.8741C80.08,67.5391 79.956,67.1811 79.744,66.8911C79.315,66.3001 78.825,65.7551 78.376,65.1781C77.692,64.2991 76.825,63.6251 75.932,62.9861C75.619,62.7601 75.294,62.8131 75.09,63.1111C74.656,63.7431 74.254,64.3971 73.802,65.0121C73.606,65.2801 73.671,65.4251 73.87,65.6261C74.486,66.2531 75.09,66.8921 75.697,67.5301C75.934,67.7821 76.124,68.0861 75.984,68.4311C75.839,68.7801 75.555,68.9421 75.131,68.9631C74.682,68.9861 74.226,69.1021 73.947,69.5671C73.849,69.7301 73.592,69.7971 73.409,69.9091C73.279,69.6851 73.128,69.4721 73.031,69.2371C72.995,69.1531 73.078,69.0131 73.118,68.9011C73.187,68.7041 73.311,68.5101 73.319,68.3101C73.325,68.1751 73.174,68.0321 73.092,67.8931C72.988,67.9681 72.833,68.0211 72.786,68.1231C72.468,68.8191 71.98,69.3611 71.377,69.8271C70.912,70.1861 70.476,70.5821 70.055,70.9921C69.94,71.1021 69.832,71.3861 69.893,71.4751C70.025,71.6701 70.3,71.9431 70.457,71.9091C70.926,71.8121 71.171,72.1821 71.524,72.3041C71.744,72.3791 71.783,72.6671 71.59,72.8281C71.265,73.0981 71.174,73.4511 71.069,73.8271C70.894,74.4631 71.092,74.7151 71.765,74.7961C72.013,74.8251 72.261,75.0101 72.461,75.1831C72.545,75.2561 72.541,75.4931 72.493,75.6281C72.469,75.6991 72.268,75.7511 72.153,75.7421C71.973,75.7291 71.8,75.6441 71.62,75.6161C71.48,75.5951 71.237,75.5661 71.207,75.6241C71.137,75.7671 71.104,75.9811 71.162,76.1241C71.26,76.3631 71.424,76.5831 71.59,76.7871C71.884,77.1511 71.894,77.3571 71.582,77.7151C71.197,78.1571 71.016,78.6701 71.203,79.2291C71.417,79.8731 71.817,80.4241 72.535,80.5191C73.252,80.6141 73.992,80.5381 74.71,80.6271C75.585,80.7371 76.077,80.2581 76.503,79.6301C76.891,79.0621 77.231,78.4621 77.64,77.9111C78.166,77.2021 78.8,76.5681 79.276,75.8311C79.843,74.9521 80.527,74.1281 80.769,73.0671C80.872,72.6201 81.006,72.1821 81.108,71.8101M137.106,87.0091C137.161,87.0191 137.222,87.0291 137.288,87.0391C137.472,86.7221 137.67,86.4131 137.844,86.0891C138.165,85.4881 138.468,84.8771 138.783,84.2741C138.96,83.9361 139.145,83.6021 139.331,83.2701C139.728,82.5611 140.098,81.8281 140.552,81.1531C140.908,80.6171 141.357,80.1451 141.786,79.6631C142.381,78.9931 142.976,78.3161 143.607,77.6811C144.227,77.0561 144.894,76.4691 145.549,75.8791C146.179,75.3211 146.822,74.7821 147.457,74.2331C147.821,73.9151 148.187,73.5951 148.608,73.2231C148.461,73.2091 148.379,73.1731 148.328,73.1991C148.016,73.3701 147.693,73.5261 147.413,73.7371C146.79,74.2031 146.183,74.6861 145.583,75.1841C145.007,75.6651 144.436,76.1581 143.891,76.6751C143.44,77.1051 143.027,77.5731 142.597,78.0281C142.367,78.2771 142.148,78.5401 141.909,78.7821C141.515,79.1751 141.225,79.6851 140.641,79.8991C140.427,79.5491 140.572,79.2281 140.758,79.0001C141.578,78.0011 142.431,77.0281 143.285,76.0541C143.45,75.8651 143.682,75.7341 143.848,75.5471C144.376,74.9311 144.861,74.2771 145.414,73.6861C145.993,73.0691 146.646,72.5221 147.241,71.9181C147.943,71.2071 147.938,70.6621 147.647,70.0201C147.555,69.8181 147.457,69.6151 147.35,69.4231C147.055,68.8921 146.78,68.3481 146.443,67.8481C146.106,67.3551 145.697,66.9141 145.325,66.4441C144.92,65.9261 144.492,65.4811 143.746,65.5341C142.434,65.6281 141.142,65.8301 139.891,66.2361C138.849,66.5751 137.801,66.9521 136.875,67.5721C135.658,68.3891 134.336,69.0841 133.478,70.3471C133.368,70.5041 133.163,70.6041 133.078,70.7721C132.769,71.3761 132.315,71.8941 132.167,72.5971C132.042,73.1891 131.755,73.7471 131.544,74.3221C131.391,74.7381 131.268,75.1641 131.101,75.5741C130.777,76.3871 130.427,77.1931 130.089,78.0011C130.036,78.1341 129.994,78.2811 129.909,78.3911C129.048,79.5001 127.896,80.1931 126.611,80.6991C126.332,80.8091 126.08,81.0061 125.795,81.0871C124.346,81.5011 122.868,81.4891 121.385,81.3431C121.053,81.3091 120.719,81.2821 120.389,81.2401C119.866,81.1731 119.341,81.1021 118.819,81.0171C118.454,80.9581 118.096,80.8761 117.737,80.8001C117.595,80.7701 117.456,80.7291 117.316,80.6951C116.521,80.5081 115.724,80.3361 114.937,80.1291C114.365,79.9781 113.802,79.7891 113.24,79.6091C112.667,79.4251 112.104,79.2161 111.529,79.0451C111.169,78.9371 110.796,78.8761 110.373,78.7801C110.395,78.9901 110.365,79.1371 110.424,79.2181C110.925,79.9051 111.224,80.6841 111.536,81.4691C111.856,82.2741 111.98,83.0991 112.084,83.9361C112.234,85.1341 112.35,86.3391 112.5,87.5391C112.566,88.0731 113.065,88.4051 113.415,88.1701C113.697,87.9801 113.769,87.7321 113.655,87.3851C113.544,87.0511 113.495,86.6901 113.476,86.3361C113.459,85.9951 113.696,85.8251 114.007,85.9681C114.361,86.1331 114.72,86.3281 115.007,86.5891C115.666,87.1951 116.259,87.8761 116.926,88.4721C117.343,88.8461 117.829,89.1561 118.318,89.4391C118.857,89.7511 119.422,90.0261 119.998,90.2651C120.456,90.4561 120.938,90.6371 121.427,90.7001C122.054,90.7821 122.697,90.7711 123.331,90.7481C124.063,90.7231 124.794,90.6351 125.526,90.5881C125.917,90.5621 126.089,90.8901 126.248,91.1441C126.383,91.3611 126.239,91.6011 126.025,91.7691C125.816,91.9321 125.625,92.1211 125.417,92.2891C124.964,92.6601 124.471,92.9131 123.882,93.0621C123.218,93.2291 122.561,93.3231 121.888,93.3891C120.912,93.4871 119.941,93.6341 118.965,93.7391C118.695,93.7681 118.417,93.7121 118.144,93.7211C117.354,93.7491 116.557,93.8721 115.774,93.8031C114.668,93.7041 113.558,93.6841 112.449,93.4671C111.544,93.2901 110.671,93.1171 109.849,92.7021C109.458,92.5051 109.062,92.3181 108.656,92.1571C108.533,92.1091 108.37,92.1551 108.223,92.1571C108.285,92.3091 108.308,92.4951 108.414,92.6021C108.514,92.7031 108.698,92.7181 108.844,92.7751C108.954,92.8151 109.069,92.8481 109.174,92.9031C109.534,93.0901 109.879,93.3071 110.248,93.4691C110.708,93.6711 111.182,93.8371 111.653,94.0041C111.975,94.1181 112.299,94.2741 112.631,94.3011C113.631,94.3881 114.64,94.3991 115.641,94.4841C116.251,94.5361 116.853,94.6711 117.537,94.7821C117.839,94.3561 118.458,94.4841 118.97,94.4171C120.289,94.2431 121.624,94.1791 122.951,94.0671C123.028,94.0611 123.101,94.0141 123.175,93.9981C123.935,93.8321 124.688,93.5981 125.457,93.5191C126.737,93.3861 127.988,93.1241 129.241,92.8531C129.707,92.7531 130.184,92.7081 130.638,92.5681C131.08,92.4301 131.498,92.2001 131.926,92.0181C132.565,91.7481 133.219,91.5121 133.844,91.2161C134.516,90.8981 135.156,90.4931 135.586,89.8821C136.017,89.2731 136.346,88.5951 136.715,87.9431C136.768,87.8481 136.77,87.7251 136.799,87.6161C136.77,87.5981 136.743,87.5791 136.715,87.5611C136.613,87.6991 136.504,87.8281 136.412,87.9711C136.264,88.2051 136.17,88.4861 135.981,88.6781C135.635,89.0291 135.258,89.3521 134.864,89.6461C134.254,90.1011 133.668,90.6351 132.98,90.9261C132.206,91.2561 131.333,91.3631 130.495,91.5511C130.3,91.5971 130.175,91.5171 130.159,91.2741C130.14,90.9711 130.319,90.9101 130.553,90.8221C131.19,90.5821 131.903,90.4211 132.427,90.0211C133.409,89.2691 134.289,88.3801 135.197,87.5291C135.517,87.2291 135.879,86.9171 136.059,86.5331C136.634,85.3431 137.278,84.1981 138.075,83.1471C138.262,82.8991 138.445,82.5091 138.936,82.5861C138.911,82.7591 138.932,82.9221 138.87,83.0411C138.598,83.5531 138.284,84.0421 138.024,84.5571C137.697,85.2021 137.398,85.8601 137.11,86.5211C137.054,86.6591 137.106,86.8451 137.106,87.0091M204.859,2.00414C204.128,2.42614 203.849,3.06514 203.692,3.75414C203.595,4.17314 203.425,4.52314 202.763,4.42614C202.645,4.41114 202.494,4.40014 202.406,4.45514C201.876,4.77314 201.334,5.08314 200.842,5.45114C200.37,5.80714 199.968,6.25014 199.502,6.62114C198.813,7.17414 198.111,7.71614 197.391,8.23014C196.965,8.53514 196.516,8.82514 196.037,9.03614C195.365,9.33414 194.652,9.53514 193.969,9.80814C193.11,10.1491 192.247,10.3951 191.305,10.3471C190.54,10.3091 189.766,10.4991 189.167,10.9351C188.267,11.5861 187.511,12.4361 187.127,13.5031C186.91,14.1161 186.813,14.8011 187.285,15.4081C187.364,15.5111 187.356,15.6841 187.387,15.8241C187.457,16.1031 187.504,16.3901 187.6,16.6581C187.763,17.1061 187.797,17.5401 187.582,17.9721C187.197,18.7381 186.826,19.5101 186.405,20.2521C186.123,20.7431 185.822,21.2411 185.428,21.6381C184.727,22.3441 183.977,23.0031 183.204,23.6291C182.434,24.2521 181.594,24.7921 180.809,25.4001C180.294,25.8031 179.826,26.2691 179.327,26.6931C178.351,27.5201 177.36,28.3231 176.397,29.1631C175.804,29.6791 175.256,30.2411 174.687,30.7841C174.535,30.9261 174.375,31.0641 174.247,31.2281C173.941,31.6261 173.641,32.0301 173.353,32.4451C173.078,32.8481 172.774,33.2431 172.572,33.6841C172.306,34.2781 172.135,34.9121 171.909,35.5261C171.787,35.8721 171.624,36.2071 171.509,36.5561C171.341,37.0611 171.213,37.5811 171.032,38.0841C170.832,38.6481 170.597,39.2031 170.362,39.7571C170.14,40.2791 169.915,40.8011 169.67,41.3121C169.377,41.9061 169.03,42.4701 169.063,43.1741C169.065,43.2791 168.944,43.4001 168.859,43.4961C168.393,44.0561 167.877,44.5901 167.94,45.4261C168.365,44.9051 168.766,44.3641 169.15,43.8121C169.331,43.5491 169.589,43.2711 169.616,42.9801C169.692,42.2151 170.006,41.5741 170.35,40.9091C170.972,39.7261 171.518,38.5061 172.079,37.2921C172.574,36.2121 173.008,35.1011 173.545,34.0421C173.87,33.4101 174.147,32.7111 174.831,32.3231C175.183,32.5021 175.216,32.7661 174.94,33.2041C174.736,33.5261 174.51,33.8381 174.351,34.1801C173.949,35.0421 173.557,35.9091 173.2,36.7901C172.829,37.7091 172.505,38.6481 172.167,39.5801C172.148,39.6281 172.148,39.6881 172.153,39.7401C172.189,40.1891 172.139,40.6161 171.912,41.0181C171.856,41.1171 171.865,41.2491 171.827,41.3591C171.667,41.7881 171.595,42.2911 171.318,42.6281C170.286,43.9001 169.191,45.1231 168.105,46.3521C167.923,46.5581 167.658,46.6951 167.436,46.8641C167.227,47.0221 167.001,47.1591 166.819,47.3461C166.509,47.6741 166.231,48.0361 165.931,48.3721C165.573,48.7691 165.222,49.1801 164.827,49.5401C164.137,50.1661 163.437,50.7871 162.701,51.3561C162.063,51.8471 161.352,52.2421 160.706,52.7201C160.245,53.0591 159.855,53.4971 159.393,53.8361C158.494,54.4971 157.572,55.1291 156.803,55.9571C156.376,56.4151 155.93,56.8561 155.474,57.2861C154.816,57.9091 154.149,58.5221 153.476,59.1231C153.026,59.5201 152.531,59.8651 152.096,60.2741C151.161,61.1521 150.281,62.0931 149.314,62.9371C148.754,63.4251 148.087,63.7931 147.447,64.1831C147.124,64.3811 146.754,64.4991 146.41,64.6661C145.951,64.8921 145.905,65.0951 146.169,65.5351C146.766,66.5291 147.365,67.5231 147.943,68.5291C148.496,69.4841 148.973,70.4851 149.568,71.4101C150.081,72.2111 150.224,73.1981 150.891,73.9121C150.921,73.9451 150.909,74.0151 150.914,74.0691C150.997,74.6411 151.004,75.2221 151.306,75.7571C151.479,76.0721 151.553,76.4491 151.641,76.8051C151.812,77.5061 151.917,78.2281 152.141,78.9081C152.305,79.3881 152.346,79.8581 152.396,80.3481C152.435,80.7821 152.633,81.2061 152.797,81.6181C152.873,81.8011 153.008,81.8201 153.147,81.6011C153.267,81.4131 153.459,81.2701 153.629,81.1181C154.259,80.5571 154.905,80.0201 155.515,79.4401C156.042,78.9371 156.52,78.3801 157.04,77.8641C157.233,77.6701 157.509,77.5491 157.689,77.3461C158.302,76.6601 158.883,75.9471 159.48,75.2511C159.773,74.9161 160.084,74.5991 160.38,74.2721C160.866,73.7331 161.36,73.1961 161.837,72.6461C162.011,72.4481 162.163,72.2301 162.307,72.0091C162.483,71.7451 162.618,71.4531 162.807,71.2011C163.299,70.5541 163.808,69.9261 164.305,69.2891C164.461,69.0901 164.605,68.8851 164.749,68.6781C165.125,68.1501 165.487,67.6151 165.863,67.0871C166.254,66.5361 166.689,66.0151 167.043,65.4391C167.717,64.3281 168.343,63.1881 168.988,62.0601C169.308,61.5001 169.651,60.9501 169.947,60.3791C170.202,59.8921 170.563,59.4311 170.378,58.8041C170.288,58.5181 170.416,58.2721 170.656,58.0661C170.959,57.8041 171.217,57.4851 171.522,57.2251C171.623,57.1411 171.814,57.1351 171.958,57.1501C172.003,57.1551 172.082,57.3661 172.052,57.4521C171.852,58.0611 171.627,58.6621 171.402,59.2601C171.208,59.7731 171.002,60.2781 170.796,60.7851C170.607,61.2451 170.443,61.7181 170.216,62.1551C169.873,62.8091 169.476,63.4341 169.117,64.0771C169.016,64.2601 168.965,64.4741 168.859,64.6521C168.173,65.7781 167.482,66.9041 166.778,68.0181C166.315,68.7541 165.851,69.4941 165.332,70.1961C164.952,70.7111 164.448,71.1341 164.079,71.6521C163.28,72.7681 162.539,73.9241 161.587,74.9281C160.902,75.6581 160.252,76.4231 159.585,77.1741C159.142,77.6721 158.707,78.1821 158.248,78.6671C157.901,79.0351 157.527,79.3881 157.142,79.7211C156.668,80.1341 156.131,80.4811 155.688,80.9261C155.018,81.6011 154.352,82.2761 153.517,82.7421C153.084,82.9851 152.924,83.3221 152.949,83.7711C152.957,83.9261 153.026,84.1521 153.142,84.2141C153.249,84.2741 153.481,84.2001 153.606,84.1131C154.099,83.7571 154.574,83.3701 155.056,82.9991C155.224,82.8701 155.417,82.7711 155.575,82.6341C156.316,81.9941 157.056,81.3471 157.789,80.6971C157.968,80.5401 158.138,80.3711 158.29,80.1931C158.63,79.8071 158.933,79.3951 159.291,79.0271C159.674,78.6241 160.115,78.2781 160.495,77.8761C161.967,76.3301 163.386,74.7441 164.596,72.9761C165.37,71.8451 166.185,70.7431 166.97,69.6221C167.589,68.7461 168.2,67.8671 168.799,66.9811C168.981,66.7121 169.101,66.4041 169.266,66.1231C169.776,65.2531 170.3,64.3881 170.808,63.5171C170.958,63.2561 171.063,62.9671 171.222,62.7081C171.624,62.0391 172.042,61.3791 172.464,60.7191C172.844,60.1191 173.198,59.4961 173.626,58.9331C174.446,57.8481 175.366,56.8361 176.142,55.7221C176.662,54.9761 177.1,54.1361 177.375,53.2771C177.518,52.8351 177.569,52.3411 177.74,51.8841C177.954,51.3231 178.14,50.7491 178.32,50.1781C178.491,49.6441 178.654,49.1081 178.797,48.5671C178.96,47.9351 179.029,47.2721 179.256,46.6641C179.531,45.9071 179.783,45.1501 180.178,44.4171C180.733,43.4001 181.51,42.5431 182.017,41.5131C182.462,40.6201 183.157,39.8781 183.5,38.9201C183.703,38.3571 184.014,37.8321 184.297,37.3011C184.709,36.5251 185.138,35.7591 185.562,34.9891C186.025,34.1431 186.479,33.2921 186.961,32.4531C187.447,31.5981 187.952,30.7521 188.467,29.9131C188.634,29.6381 188.851,29.3951 189.042,29.1381C189.192,28.9371 189.353,28.7441 189.491,28.5331C189.562,28.4261 189.559,28.2751 189.63,28.1691C190.177,27.3261 190.728,26.4871 191.284,25.6531C191.789,24.8971 192.29,24.1341 192.827,23.4031C193.151,22.9611 193.563,22.5761 193.923,22.1571C194.55,21.4311 195.166,20.6941 195.797,19.9701C196.302,19.3931 196.8,18.8051 197.351,18.2681C197.77,17.8581 198.123,17.4411 198.419,16.9081C198.943,15.9701 199.665,15.1431 200.278,14.2491C200.37,14.1131 200.373,13.7221 200.321,13.7031C199.97,13.5721 199.596,13.4721 199.226,13.4481C199.128,13.4421 199.01,13.7301 198.901,13.8851C198.894,13.8941 198.896,13.9131 198.901,13.9251C199.114,14.4091 198.808,14.8461 198.602,15.1651C198.116,15.9111 197.476,16.5601 196.9,17.2441C196.789,17.3791 196.656,17.4971 196.552,17.6341C196.033,18.3221 195.523,19.0151 195.008,19.7031C194.495,20.3771 193.983,21.0481 193.462,21.7141C193.123,22.1501 192.795,22.5911 192.428,23.0031C191.929,23.5651 191.368,24.0721 190.897,24.6531C190.223,25.4811 189.593,26.3491 188.966,27.2131C188.505,27.8431 188.069,28.4901 187.638,29.1401C187.295,29.6601 186.979,30.1991 186.641,30.7241C186.558,30.8571 186.419,30.9591 186.345,31.0971C186.014,31.6921 185.71,32.3011 185.374,32.8961C185.002,33.5591 184.594,34.1981 184.232,34.8681C183.769,35.7341 183.334,36.6151 182.892,37.4941C182.605,38.0701 182.323,38.6481 182.061,39.2361C181.785,39.8591 181.554,40.5001 181.275,41.1221C181.095,41.5301 180.88,41.9241 180.659,42.3121C180.451,42.6801 180.222,43.0391 179.983,43.3881C179.943,43.4471 179.737,43.4811 179.719,43.4501C179.645,43.3451 179.594,43.2081 179.582,43.0811C179.576,42.9851 179.658,42.8851 179.686,42.7831C179.772,42.4001 179.891,42.0171 179.923,41.6281C179.964,41.1691 179.641,40.9601 179.261,41.2191C178.797,41.5371 178.387,41.9391 177.972,42.3251C177.731,42.5511 177.525,42.8191 177.304,43.0681C177.24,43.0391 177.18,43.0091 177.115,42.9801C177.143,42.8071 177.129,42.6191 177.199,42.4671C177.324,42.1911 177.493,41.9361 177.648,41.6721C178.162,40.7851 178.811,40.0531 179.842,39.7581C180.266,39.6361 180.478,39.3261 180.583,38.9131C180.637,38.7001 180.705,38.4831 180.808,38.2881C181.087,37.7491 181.392,37.2261 181.67,36.6881C182.17,35.7121 182.639,34.7131 183.166,33.7521C183.472,33.1891 183.917,32.6991 184.218,32.1341C184.658,31.3061 185.303,30.6311 185.812,29.8621C186.245,29.2201 186.637,28.5531 187.073,27.9181C187.489,27.3201 187.934,26.7391 188.383,26.1691C188.818,25.6201 189.282,25.0951 189.732,24.5581C190.224,23.9651 190.698,23.3571 191.21,22.7811C191.485,22.4721 191.831,22.2291 192.122,21.9321C192.308,21.7461 192.407,21.4631 192.611,21.3141C193.421,20.7231 193.874,19.8701 194.365,19.0381C194.822,18.2561 195.275,17.4751 196.056,16.9441C196.936,16.3431 197.66,15.5851 198.164,14.6411C198.292,14.4131 198.401,14.1751 198.503,13.9361C198.569,13.7821 198.709,13.5461 198.656,13.4801C198.552,13.3551 198.322,13.2541 198.162,13.2691C197.301,13.3491 196.641,12.8661 195.945,12.5001C195.861,12.4541 195.849,12.2181 195.861,12.0761C195.864,12.0311 196.094,11.9401 196.158,11.9761C196.923,12.4011 197.759,12.2691 198.562,12.2731C199.502,12.2781 200.264,11.7321 200.995,11.2481C201.588,10.8551 202.058,10.2721 202.584,9.77514C202.997,9.38814 203.404,9.00314 203.819,8.62014C204.26,8.21814 204.706,7.82814 205.139,7.41614C205.251,7.30614 205.314,7.13814 205.399,6.99614C205.238,6.96114 205.055,6.86914 204.901,6.90514C204.273,7.04614 203.677,7.22214 203.124,7.63314C202.476,8.11714 201.713,8.44414 201,8.84614C200.706,9.01214 200.434,9.22414 200.124,9.35614C199.825,9.48314 199.494,9.53114 199.177,9.62214C198.883,9.70714 198.59,9.79414 198.312,9.44514C198.607,9.27614 198.869,9.10014 199.155,8.97014C199.662,8.73514 200.208,8.56914 200.694,8.30014C201.558,7.82314 202.4,7.30114 203.233,6.77414C203.348,6.70314 203.458,6.41214 203.402,6.33714C203.116,5.92114 203.34,5.80114 203.699,5.70814C203.849,5.66914 203.99,5.58114 204.143,5.54114C204.454,5.45814 204.795,5.33114 205.021,5.65914C205.212,5.93714 205.419,5.97714 205.73,5.92814C205.9,5.90414 206.125,6.04314 206.277,6.16814C206.392,6.26814 206.431,6.45814 206.56,6.72514C206.986,6.34114 207.462,6.04214 207.758,5.62114C208.129,5.10114 208.309,4.45314 208.647,3.90914C209.113,3.16014 209.291,2.31214 209.581,1.50414C209.635,1.35214 209.493,1.13114 209.436,0.942138C209.286,1.07614 209.128,1.19914 208.995,1.35114C208.941,1.40914 208.988,1.54214 208.946,1.61814C208.822,1.85714 208.718,2.12514 208.529,2.30114C208.362,2.45814 208.147,2.41214 208.14,2.10214C208.14,1.81914 208.147,1.53514 208.14,1.25114C208.132,0.964138 207.929,0.829138 207.682,0.963138C207.366,1.13314 207.123,1.35714 207.159,1.78014C207.179,1.97114 207.153,2.19014 207.072,2.36114C207.009,2.48514 206.817,2.62614 206.697,2.61514C206.578,2.60414 206.418,2.43014 206.377,2.29614C206.316,2.12514 206.37,1.92014 206.353,1.73414C206.341,1.62314 206.282,1.51714 206.229,1.37114C205.801,1.72914 205.634,2.14314 205.552,2.59114C205.475,2.99414 205.474,3.41414 205.367,3.80614C205.318,3.98114 205.108,4.21414 204.948,4.23514C204.679,4.26714 204.626,4.00014 204.66,3.77214C204.714,3.36514 204.803,2.96414 204.855,2.55814C204.879,2.37714 204.859,2.19014 204.859,2.00414M86.806,72.4931C87.249,72.5811 87.694,72.6661 88.138,72.7561C88.412,72.8111 88.506,73.1151 88.351,73.4371C88.065,74.0411 87.533,74.2101 86.836,73.8891C86.478,73.7241 86.176,73.7551 85.785,73.8641C84.451,74.2351 83.416,75.0781 82.441,75.9681C81.541,76.7911 80.778,77.7611 79.951,78.6651C79.552,79.1001 79.133,79.5171 78.745,79.9641C78.485,80.2621 78.23,80.5761 78.041,80.9201C77.851,81.2651 78.155,81.4411 78.402,81.5911C78.808,81.8401 79.246,82.0411 79.629,82.3191C80.103,82.6601 80.545,83.0491 80.984,83.4361C82.01,84.3441 83.028,85.2621 84.05,86.1761C84.724,86.7811 85.392,87.3931 86.073,87.9901C86.54,88.4031 87.047,88.7761 87.493,89.2081C87.888,89.5921 88.228,90.0341 88.587,90.4531C88.718,90.6051 88.805,90.8361 88.966,90.9071C89.487,91.1391 89.641,91.6241 89.853,92.0701C90.058,92.4991 90.122,92.5471 90.701,92.4841C90.463,92.1341 90.254,91.8281 90.047,91.5241C89.765,91.1081 89.478,90.6971 89.204,90.2751C89.057,90.0461 88.941,89.7931 88.801,89.5561C88.423,88.9091 88.175,88.2211 87.983,87.4911C87.85,86.9811 87.562,86.4981 87.275,86.0451C86.894,85.4421 86.735,84.7761 86.557,84.1081C86.383,83.4591 86.126,82.8211 86.056,82.1611C85.965,81.3361 85.988,80.4921 86.032,79.6601C86.06,79.1261 86.167,78.5831 86.321,78.0701C86.634,77.0201 87.07,76.0261 87.805,75.1831C88.233,74.6951 88.586,74.1391 89.029,73.6661C89.399,73.2691 89.845,72.9421 90.269,72.5971C91.221,71.8161 92.332,71.3141 93.457,70.8511C94.122,70.5761 94.826,70.3931 95.516,70.1801C95.584,70.1601 95.748,70.2221 95.75,70.2551C95.761,70.3731 95.762,70.5631 95.692,70.6081C95.416,70.7811 95.122,70.9311 94.82,71.0501C94.065,71.3491 93.264,71.5511 92.552,71.9301C91.716,72.3731 90.909,72.9011 90.177,73.5011C89.514,74.0421 88.942,74.7051 88.388,75.3591C88.116,75.6811 87.962,76.1051 87.769,76.4901C87.615,76.7951 87.493,77.1151 87.343,77.4211C86.946,78.2311 86.874,79.1231 86.746,79.9891C86.676,80.4601 86.899,80.9721 86.976,81.4691C87.028,81.8081 87.014,82.1631 87.099,82.4931C87.503,84.0491 88.155,85.4881 89.108,86.7921C89.569,87.4191 89.93,88.1171 90.384,88.7491C90.935,89.5191 91.519,90.2671 92.128,90.9911C92.333,91.2351 92.669,91.3641 92.926,91.5711C93.549,92.0701 94.14,92.6121 94.783,93.0831C95.389,93.5281 96.035,93.9221 96.685,94.3011C96.891,94.4221 97.163,94.4371 97.409,94.4721C97.843,94.5361 98.279,94.6341 98.712,94.6181C99.291,94.6001 99.871,94.4991 100.447,94.4141C101.127,94.3101 101.804,94.1881 102.48,94.0701C102.687,94.0341 102.894,93.9891 103.099,93.9441C103.378,93.8811 103.667,93.8391 103.935,93.7391C104.199,93.6391 104.436,93.4721 104.688,93.3401C105.199,93.0701 105.72,92.8211 106.22,92.5301C106.573,92.3251 106.904,92.0801 107.224,91.8261C107.339,91.7351 107.407,91.5711 107.464,91.4261C107.565,91.1611 107.593,90.8561 107.742,90.6211C108.33,89.6871 108.492,88.6441 108.608,87.5781C108.676,86.9611 108.776,86.3461 108.884,85.7331C108.99,85.1371 109.177,84.5531 109.234,83.9541C109.282,83.4691 109.219,82.9651 109.158,82.4731C109.08,81.8591 108.978,81.2421 108.839,80.6391C108.738,80.1931 108.602,79.7431 108.399,79.3371C108.095,78.7301 107.766,78.1231 107.356,77.5861C107.091,77.2411 106.664,77.0171 106.304,76.7481C106.198,76.6701 106.037,76.6531 105.958,76.5591C105.857,76.4411 105.742,76.2671 105.758,76.1331C105.792,75.8561 106.041,75.8641 106.23,75.9471C106.625,76.1211 107.001,76.3351 107.389,76.5241C108.074,76.8591 108.754,77.2021 109.45,77.5091C110.024,77.7591 110.613,77.9841 111.209,78.1811C112.005,78.4451 112.817,78.6641 113.619,78.9141C114.129,79.0731 114.627,79.2781 115.142,79.4191C115.879,79.6201 116.628,79.9321 117.367,79.9181C118.068,79.9041 118.687,80.1031 119.345,80.2041C119.641,80.2491 119.918,80.2141 119.88,79.7771C119.869,79.6491 119.951,79.5001 120.021,79.3771C120.509,78.5081 121.055,77.6661 121.479,76.7681C121.72,76.2561 121.775,75.6541 121.886,75.0871C121.903,75.0001 121.775,74.8841 121.714,74.7821C121.616,74.8481 121.472,74.8931 121.427,74.9861C121.262,75.3261 121.135,75.6861 120.985,76.0331C120.939,76.1371 120.864,76.2281 120.792,76.3421C120.357,76.0901 120.531,75.7091 120.547,75.3901C120.557,75.2011 120.689,75.0251 120.731,74.8321C120.809,74.4861 120.905,74.1331 120.916,73.7811C120.942,72.9301 120.936,72.0761 120.916,71.2241C120.912,70.9791 120.832,70.7331 120.76,70.4961C120.699,70.2851 120.532,70.2581 120.389,70.4011C120.227,70.5661 120.041,70.7481 119.973,70.9581C119.797,71.4871 119.709,72.0481 119.525,72.5741C119.472,72.7241 119.205,72.7981 119.039,72.9051C119.007,72.7411 118.935,72.5701 118.957,72.4121C119.026,71.9301 119.152,71.4561 119.207,70.9731C119.221,70.8491 119.082,70.6451 118.961,70.5891C118.881,70.5511 118.646,70.6811 118.591,70.7911C118.42,71.1261 118.311,71.4921 118.162,71.8391C118.032,72.1391 117.885,72.4341 117.731,72.7251C117.701,72.7791 117.585,72.8361 117.535,72.8201C117.463,72.7941 117.368,72.7001 117.37,72.6351C117.373,72.4261 117.401,72.2151 117.446,72.0101C117.495,71.7831 117.575,71.5641 117.641,71.3421C117.59,71.3141 117.536,71.2861 117.485,71.2591C117.36,71.4531 117.242,71.6501 117.111,71.8391C116.921,72.1121 116.702,72.3671 116.535,72.6521C116.354,72.9661 116.202,73.2961 116.065,73.6331C115.964,73.8841 115.918,74.1551 115.832,74.4121C115.671,74.8971 115.511,75.3851 115.325,75.8611C115.224,76.1161 115.08,76.3581 114.94,76.5951C114.6,77.1681 114.312,77.7961 113.626,78.0581C113.518,78.0991 113.394,78.0951 113.277,78.1111C113.297,77.9771 113.277,77.8171 113.344,77.7141C113.642,77.2611 114.004,76.8471 114.269,76.3771C114.511,75.9511 114.67,75.4771 114.841,75.0141C115.074,74.3901 115.348,73.7711 115.484,73.1241C115.676,72.2101 116.441,71.7141 116.892,70.9961C117.113,70.6451 117.306,70.2451 117.786,70.1491C118.104,70.0851 118.392,69.9731 118.672,69.7711C118.859,69.6391 119.185,69.7071 119.449,69.6741C119.668,69.6451 119.898,69.6251 120.103,69.5481C120.321,69.4671 120.516,69.3221 120.717,69.2021C121.059,68.9971 121.26,69.1481 121.417,69.4571C121.745,70.1021 121.729,70.7941 121.717,71.4841C121.705,72.0481 121.648,72.6111 121.665,73.1731C121.675,73.5101 121.944,73.3911 122.152,73.3561C122.302,73.3291 122.536,73.2861 122.598,73.3611C122.726,73.5171 122.829,73.7461 122.832,73.9461C122.834,74.2991 122.759,74.6551 122.703,75.0081C122.682,75.1491 122.634,75.2871 122.588,75.4241C122.525,75.6121 122.384,75.7991 122.396,75.9791C122.439,76.6631 122.079,77.1951 121.797,77.7611C121.517,78.3211 121.26,78.8941 120.976,79.4531C120.857,79.6861 120.692,79.8991 120.524,80.1611C120.741,80.4431 121.099,80.5141 121.441,80.5251C122.251,80.5531 123.067,80.5831 123.871,80.5171C124.428,80.4711 124.995,80.3281 125.514,80.1191C126.342,79.7861 127.154,79.3981 127.937,78.9651C128.62,78.5871 129.134,78.0441 129.389,77.2521C129.626,76.5141 130.004,75.8241 130.282,75.0971C130.492,74.5461 130.638,73.9691 130.814,73.4051C131.125,72.4011 131.343,71.3591 132.024,70.5061C132.459,69.9581 132.871,69.3861 133.316,68.8441C133.446,68.6881 133.663,68.6071 133.835,68.4811C134.09,68.2881 134.327,68.0801 134.586,67.8901C134.797,67.7371 135.021,67.6041 135.24,67.4631C135.327,67.4051 135.424,67.3571 135.503,67.2891C136.397,66.5131 137.491,66.0951 138.547,65.6211C139.233,65.3151 139.961,65.1461 140.712,65.0431C141.486,64.9341 142.25,64.7001 143.02,64.5491C143.891,64.3761 144.769,64.2541 145.631,64.0681C145.929,64.0041 146.22,63.8431 146.474,63.6631C147.105,63.2071 147.722,62.7191 148.338,62.2371C148.893,61.8051 149.449,61.3761 149.987,60.9221C150.39,60.5801 150.756,60.1941 151.15,59.8401C151.461,59.5591 151.795,59.3051 152.104,59.0281C152.498,58.6761 152.888,58.3171 153.267,57.9501C154.064,57.1921 154.852,56.4241 155.644,55.6611C156.325,55.0051 156.976,54.3061 157.704,53.7041C158.64,52.9281 159.593,52.1461 160.625,51.5191C161.658,50.8921 162.606,50.1921 163.479,49.3701C163.951,48.9191 164.466,48.4991 164.899,48.0111C165.559,47.2701 166.187,46.5051 166.496,45.5241C166.602,45.1841 166.876,44.8981 167.052,44.5761C167.543,43.6761 168.118,42.8071 168.478,41.8571C168.729,41.1851 169.216,40.6831 169.479,40.0441C169.512,39.9581 169.6,39.8891 169.619,39.8041C169.766,39.2101 169.887,38.6081 170.052,38.0171C170.17,37.5901 170.342,37.1781 170.492,36.7611C170.663,36.2941 170.851,35.8341 171.011,35.3651C171.171,34.8961 171.264,34.4011 171.461,33.9471C171.694,33.4061 171.958,32.8671 172.294,32.3881C172.839,31.6081 173.49,30.8991 174.044,30.1201C174.846,28.9891 175.998,28.2451 176.999,27.3311C177.264,27.0881 177.53,26.8421 177.806,26.6061C178.137,26.3201 178.477,26.0421 178.815,25.7631C179.441,25.2461 180.071,24.7351 180.697,24.2171C181.044,23.9261 181.383,23.6231 181.729,23.3361C182.119,23.0161 182.529,22.7201 182.911,22.3901C183.231,22.1171 183.519,21.8111 183.825,21.5241C183.94,21.4161 184.052,21.3001 184.185,21.2221C184.528,21.0211 184.798,20.7751 185.054,20.4521C185.615,19.7491 186.174,19.0391 186.47,18.2001C186.633,17.7371 186.595,17.1661 186.516,16.6651C186.451,16.2481 186.145,15.8751 186.029,15.4601C185.843,14.8061 185.738,14.1191 185.96,13.4591C186.235,12.6411 186.566,11.8411 187.295,11.2881C187.809,10.8901 188.277,10.3571 188.861,10.1341C189.458,9.90714 190.044,9.57614 190.742,9.58814C191.373,9.59814 192.002,9.40314 192.635,9.34514C193.758,9.24614 194.733,8.71914 195.681,8.19714C196.629,7.67814 197.492,7.00714 198.366,6.36314C198.998,5.89914 199.652,5.43514 200.169,4.85814C200.816,4.13514 201.677,3.92514 202.508,3.63414C202.956,3.48114 202.989,3.07414 203.192,2.76814C203.404,2.44214 203.553,2.06314 203.807,1.77214C204.466,1.00914 205.419,0.798138 206.338,0.531138C206.435,0.502138 206.553,0.493138 206.632,0.433138C207.134,0.0401376 207.772,-0.00286239 208.33,0.000137607C209.088,0.00313761 209.898,0.0731376 210.531,0.622138C210.588,0.673138 210.633,0.746138 210.667,0.817138C210.855,1.18714 210.718,2.13614 210.473,2.46614C210.336,2.64814 210.262,2.87814 210.167,3.08614C210.132,3.15614 210.116,3.23714 210.079,3.30614C209.757,3.93214 209.47,4.58114 209.098,5.17814C208.664,5.87314 208.154,6.51914 207.682,7.19214C207.341,7.67614 207.012,8.17114 206.676,8.66214C206.583,8.79314 206.497,8.92614 206.391,9.04514C205.724,9.80014 205.052,10.5501 204.378,11.3041C204.336,11.3541 204.28,11.4001 204.255,11.4611C204.035,11.9931 203.724,12.4531 203.323,12.8761C202.943,13.2751 202.696,13.7951 202.342,14.2201C201.936,14.7101 201.461,15.1431 201.04,15.6221C199.937,16.8731 198.845,18.1341 197.752,19.3941C197.288,19.9281 196.776,20.4321 196.391,21.0171C195.793,21.9231 195.018,22.6641 194.282,23.4411C194.122,23.6061 194.058,23.8571 193.906,24.0371C193.558,24.4651 193.174,24.8661 192.822,25.2951C192.275,25.9631 191.706,26.6161 191.224,27.3271C190.58,28.2671 190.018,29.2621 189.404,30.2231C189.185,30.5671 188.887,30.8651 188.681,31.2161C188.235,31.9601 187.832,32.7261 187.401,33.4761C187.165,33.8871 186.894,34.2801 186.655,34.6911C186.411,35.1091 186.179,35.5351 185.965,35.9701C185.695,36.5101 185.445,37.0601 185.193,37.6081C184.969,38.0921 184.781,38.5931 184.533,39.0611C184.126,39.8321 183.898,40.6701 183.336,41.3921C182.597,42.3511 182.017,43.4441 181.424,44.5081C181.212,44.8841 181.14,45.3351 180.771,45.6221C180.715,45.6651 180.674,45.7631 180.677,45.8361C180.699,46.4491 180.434,46.9621 180.144,47.4741C180.058,47.6311 180.113,47.8681 180.094,48.0661C180.081,48.2251 180.108,48.4161 180.027,48.5311C179.506,49.2971 179.367,50.1761 179.191,51.0581C179.085,51.5721 178.83,52.0571 178.64,52.5551C178.631,52.5791 178.616,52.6041 178.616,52.6301C178.591,53.4251 177.893,54.0131 177.908,54.7941C177.921,55.4811 177.319,55.7151 177.05,56.1911C176.662,56.8901 176.17,57.5341 175.729,58.2051C175.103,59.1541 174.489,60.1091 173.857,61.0511C173.541,61.5211 173.183,61.9631 172.874,62.4361C172.648,62.7751 172.487,63.1551 172.275,63.5011C171.856,64.1841 171.426,64.8641 170.978,65.5301C170.6,66.0901 170.192,66.6271 169.8,67.1741C169.476,67.6131 169.09,68.0181 168.849,68.4941C168.238,69.7021 167.223,70.6481 166.682,71.8831C166.116,73.1791 165.05,74.0541 164.183,75.1001C163.804,75.5561 163.429,76.0371 163.174,76.5681C162.924,77.0901 162.492,77.3771 162.107,77.7501C161.566,78.2811 161.093,78.8911 160.565,79.4401C160.115,79.9091 159.626,80.3371 159.152,80.7851C159.114,80.8221 159.068,80.8521 159.032,80.8901C158.14,81.7801 157.249,82.6701 156.357,83.5611C155.973,83.9471 155.609,84.3591 155.195,84.7081C154.938,84.9211 154.595,85.0211 154.312,85.2061C153.92,85.4581 153.555,85.7461 153.176,86.0151C152.98,86.1571 152.773,86.2851 152.589,86.4351C152.148,86.7871 151.744,87.1941 151.27,87.4961C150.361,88.0801 149.872,89.0301 149.158,89.7791C148.787,90.1671 148.372,90.5111 147.983,90.8781C147.781,91.0691 147.587,91.2661 147.396,91.4661C146.652,92.2331 145.891,92.9681 144.887,93.4111C144.533,93.5681 144.232,93.8391 143.903,94.0581C143.167,94.5481 142.411,95.0121 141.693,95.5301C140.468,96.4221 139.097,97.0371 137.726,97.6681C136.652,98.1621 135.601,98.7121 134.528,99.2181C134.294,99.3271 134.02,99.3491 133.77,99.4211C133.393,99.5301 133.015,99.6451 132.64,99.7581C131.782,100.013 130.921,100.244 130.073,100.526C128.893,100.918 127.726,101.361 126.543,101.751C125.935,101.953 125.299,102.072 124.686,102.267C124.328,102.384 123.991,102.572 123.645,102.732C122.94,103.056 122.244,103.403 121.525,103.702C120.813,104.002 120.091,104.291 119.355,104.524C118.632,104.754 117.883,104.9 117.149,105.1C116.847,105.184 116.564,105.36 116.26,105.411C115.195,105.588 114.142,105.538 113.103,105.204C112.743,105.088 112.35,105.059 111.972,105.016C111.165,104.926 110.359,104.819 109.55,104.786C109.037,104.765 108.514,104.834 108.003,104.917C107.106,105.062 106.221,105.316 105.317,105.391C104.827,105.432 104.306,105.227 103.812,105.088C102.968,104.849 102.123,104.606 101.3,104.305C100.49,104.013 99.798,103.501 99.11,102.989C98.243,102.343 97.318,101.77 96.619,100.926C96.204,100.426 95.824,99.8991 95.41,99.3971C95.239,99.1901 95.005,99.0401 94.823,98.8401C94.437,98.4171 94.071,97.9761 93.686,97.5501C93.293,97.1141 92.96,96.5641 92.473,96.2911C91.692,95.8541 91.377,95.0131 90.692,94.5151C90.503,94.3781 90.431,94.0891 90.276,93.8911C90.113,93.6841 89.907,93.5091 89.733,93.3071C89.427,92.9551 89.114,92.6071 88.839,92.2331C88.639,91.9601 88.509,91.6371 88.318,91.3571C88.195,91.1781 88.02,91.0311 87.861,90.8781C87.362,90.4011 86.869,89.9151 86.35,89.4601C86.161,89.2951 85.86,89.2531 85.677,89.0841C85.221,88.6641 84.846,88.1711 84.288,87.8431C83.913,87.6201 83.653,87.2071 83.318,86.9051C82.442,86.1221 81.563,85.3441 80.669,84.5831C79.966,83.9851 79.279,83.3521 78.507,82.8591C77.966,82.5141 77.288,82.3821 76.672,82.1531C76.589,82.1211 76.474,82.0991 76.434,82.0361C76.254,81.7511 76.008,81.6931 75.681,81.6441C74.704,81.4961 73.744,81.3291 72.746,81.4851C72.462,81.5281 72.122,81.3721 71.847,81.2351C71.495,81.0581 71.171,80.8211 70.853,80.5831C70.421,80.2631 70.155,79.8141 70.028,79.2991C69.92,78.8521 70.15,78.4891 70.412,78.1641C70.888,77.5721 70.796,77.0231 70.479,76.3631C70.24,75.8661 70.241,75.2581 69.96,74.7381C69.89,74.6081 70.028,74.3111 70.144,74.1391C70.598,73.4681 70.502,72.9661 69.951,72.5881C69.7,72.4171 69.462,72.2201 69.242,72.0081C68.871,71.6541 68.851,71.2091 69.214,70.8531C69.773,70.3071 70.366,69.7921 70.939,69.2601C71.454,68.7821 71.975,68.3081 72.468,67.8071C72.556,67.7181 72.498,67.4981 72.537,67.3481C72.582,67.1791 72.662,67.0201 72.726,66.8561C72.889,66.9261 73.063,66.9821 73.212,67.0771C73.566,67.3011 73.9,67.5601 74.261,67.7721C74.37,67.8361 74.541,67.7941 74.685,67.8001C74.633,67.6481 74.628,67.4401 74.524,67.3551C74.266,67.1521 73.974,66.9891 73.677,66.8441C73.014,66.5211 72.566,65.4101 73.014,64.7791C73.504,64.0891 74.012,63.4081 74.497,62.7161C74.745,62.3621 74.905,61.9281 75.207,61.6351C75.672,61.1861 76.21,60.8091 76.742,60.4391C77.487,59.9191 78.219,59.3661 79.022,58.9521C79.758,58.5751 80.58,58.3641 81.365,58.0821C81.415,58.0641 81.476,58.0731 81.519,58.0471C82.291,57.5921 83.177,57.6261 84.016,57.5301C85.104,57.4061 86.21,57.4251 87.305,57.3461C88.188,57.2821 89.02,57.5161 89.862,57.7091C90.832,57.9341 91.669,58.4551 92.55,58.8981C93.578,59.4171 94.379,60.2071 95.251,60.9121C95.733,61.3011 96.024,61.8411 96.203,62.4361C96.235,62.5351 96.243,62.6541 96.302,62.7351C96.65,63.2161 96.578,63.7701 96.618,64.3141C96.684,65.2121 96.839,66.1031 96.917,66.9991C96.962,67.5251 96.961,68.0591 96.908,68.5831C96.892,68.7371 96.63,68.8641 96.479,69.0041C96.386,68.8191 96.204,68.6271 96.22,68.4501C96.259,67.9951 96.41,67.5511 96.465,67.0971C96.497,66.8311 96.458,66.5511 96.41,66.2841C96.332,65.8471 96.222,65.4121 96.119,64.9781C96.077,64.8001 96.02,64.6261 95.965,64.4521C95.938,64.3651 95.891,64.2851 95.867,64.1971C95.732,63.6811 95.634,63.1551 95.457,62.6561C95.351,62.3531 95.15,62.0691 94.943,61.8181C94.27,61.0061 93.536,60.2601 92.571,59.7851C91.754,59.3831 90.961,58.9331 90.124,58.5841C89.645,58.3871 89.1,58.3421 88.583,58.2451C87.568,58.0561 86.574,58.3421 85.568,58.3981C85.254,58.4151 84.937,58.4201 84.623,58.4031C83.622,58.3441 82.648,58.5591 81.725,58.8611C80.672,59.2061 79.649,59.6791 78.67,60.2001C77.917,60.5971 77.236,61.1351 76.555,61.6531C76.215,61.9091 76.278,62.3461 76.618,62.6041C77.604,63.3501 78.495,64.1921 79.216,65.2051C79.521,65.6361 79.891,66.0301 80.135,66.4891C80.729,67.6171 81.475,68.6651 81.871,69.8881C82.143,70.7311 82.146,71.6061 82.074,72.4701C82.048,72.7971 81.803,73.1121 81.634,73.4201C81.067,74.4471 80.445,75.4361 79.739,76.3741C79.103,77.2191 78.503,78.0891 77.872,78.9401C77.612,79.2931 77.297,79.6081 77.043,79.9641C76.849,80.2401 76.705,80.5561 76.552,80.8601C76.528,80.9091 76.576,80.9931 76.592,81.0621C76.66,81.0451 76.75,81.0511 76.792,81.0081C77.07,80.7181 77.348,80.4261 77.604,80.1191C78.334,79.2381 79.038,78.3361 79.782,77.4701C80.177,77.0091 80.638,76.6101 81.065,76.1821C81.215,76.0361 81.36,75.8881 81.504,75.7361C82.461,74.7181 83.598,73.9391 84.794,73.2351C85.236,72.9741 85.675,72.7531 85.704,72.1021C85.712,71.8771 86.089,71.6491 86.325,71.4581C86.936,70.9591 87.44,70.3661 87.841,69.6931C88.117,69.2271 88.173,69.0321 87.611,68.5161C87.348,68.2771 87.002,68.0531 86.661,67.9911C86.036,67.8741 85.712,68.4041 85.334,68.7891C85.223,68.9011 85.07,68.9731 84.937,69.0641C84.891,68.8921 84.768,68.6931 84.818,68.5571C84.925,68.2681 85.097,67.9901 85.289,67.7471C85.719,67.2041 86.157,66.6631 86.632,66.1611C87.312,65.4401 88.005,64.7281 88.736,64.0631C89.41,63.4521 90.14,62.9021 90.853,62.3391C91.478,61.8461 92.162,61.4481 92.932,61.2361C93.076,61.1951 93.268,61.3301 93.437,61.3841C93.349,61.5281 93.291,61.7571 93.167,61.8011C91.985,62.2361 91.266,63.2031 90.493,64.0991C90.379,64.2301 90.417,64.5411 90.467,64.7511C90.523,64.9891 90.679,65.1751 90.991,65.1371C91.504,65.0721 92.022,64.9891 92.537,64.9921C92.883,64.9971 93.238,65.1081 93.572,65.2241C93.852,65.3211 93.974,65.2901 94.059,64.9861C94.1,64.8351 94.312,64.5991 94.395,64.6201C94.636,64.6761 94.813,64.8421 94.837,65.1591C94.862,65.5081 94.99,65.8471 95.067,66.1931C95.116,66.4111 95.156,66.6301 95.196,66.8501C95.289,67.3541 95.416,67.8551 95.464,68.3651C95.568,69.4561 95.11,69.7391 94.184,69.9951C93.974,70.0511 93.776,70.1531 93.572,70.2331C93.415,70.2941 93.261,70.3761 93.098,70.4061C92.786,70.4631 92.578,70.2401 92.708,69.9571C93.069,69.1701 92.631,68.5291 92.417,67.8241C92.252,67.2841 91.899,66.9001 91.563,66.5111C91.297,66.2061 91.035,65.7951 90.498,65.8571C90.065,65.9081 89.738,66.1011 89.545,66.4811C89.376,66.8161 89.547,67.0781 89.715,67.3921C89.995,67.9131 90.432,68.1741 90.927,68.3671C91.846,68.7261 91.93,70.1271 91.188,70.7491C90.848,71.0351 90.474,70.8781 90.466,70.3781C90.45,69.6441 90.055,69.1071 89.672,68.5571C89.583,68.4261 89.339,68.2921 89.212,68.3281C89.082,68.3651 88.992,68.5961 88.914,68.7591C88.877,68.8361 88.874,68.9611 88.912,69.0371C89.185,69.5931 88.976,70.1161 88.824,70.6451C88.789,70.7571 88.71,70.8631 88.702,70.9761C88.683,71.1911 88.634,71.4411 88.719,71.6191C88.916,72.0421 88.816,72.2521 88.35,72.2671C87.838,72.2831 87.326,72.3151 86.812,72.3381L86.806,72.4931" style=""/>
    <path d="M112.745,44.8456C112.945,45.0896 113.177,45.2856 113.293,45.5376C113.386,45.7366 113.4,46.0166 113.344,46.2326C113.108,47.1286 112.843,48.0196 112.57,48.9076C112.494,49.1536 112.357,49.3806 112.248,49.6166C112.225,49.6626 112.177,49.7076 112.175,49.7526C112.16,50.6636 111.544,51.3146 111.171,52.0706C110.88,52.6576 110.612,53.2586 110.281,53.8236C109.97,54.3586 109.571,54.8426 109.242,55.3666C108.85,55.9916 108.502,56.6456 108.112,57.2736C107.737,57.8746 107.329,58.4586 106.946,59.0586C106.879,59.1646 106.862,59.3056 106.821,59.4306C106.738,59.6886 106.66,59.9476 106.572,60.2056C106.413,60.6596 106.261,61.1176 106.088,61.5676C105.666,62.6656 105.091,63.6616 104.118,64.3706C104.023,64.4396 103.856,64.4086 103.724,64.4226C103.737,64.2896 103.701,64.1096 103.772,64.0316C104.487,63.2706 104.69,62.2746 105.037,61.3426C105.276,60.7116 105.493,60.0726 105.744,59.4446C106.121,58.4936 106.633,57.6176 107.195,56.7646C107.466,56.3506 107.633,55.8686 107.899,55.4496C108.2,54.9836 108.57,54.5626 108.885,54.1036C109.135,53.7406 109.356,53.3566 109.57,52.9666C109.85,52.4526 110.114,51.9286 110.377,51.4046C110.691,50.7726 111.141,50.1626 111.273,49.4946C111.464,48.5346 111.862,47.6646 112.159,46.7566C112.188,46.6646 112.162,46.5566 112.071,46.4176C111.915,46.6716 111.737,46.9116 111.608,47.1806C111.399,47.6156 111.228,48.0686 111.028,48.5066C110.911,48.7576 110.757,48.9916 110.632,49.2396C110.207,50.0806 109.827,50.9526 109.35,51.7646C108.995,52.3656 108.504,52.8826 108.091,53.4496C107.812,53.8336 107.575,54.2426 107.306,54.6326C106.814,55.3516 106.29,56.0466 105.826,56.7826C105.54,57.2346 105.311,57.7276 105.1,58.2206C104.838,58.8336 104.631,59.4706 104.381,60.0896C104.246,60.4176 104.058,60.7226 103.912,61.0446C103.577,61.7836 103.292,62.5476 102.912,63.2616C102.578,63.8876 102.204,64.5146 101.737,65.0446C100.612,66.3246 99.4095,67.5336 98.2655,68.7966C97.9315,69.1666 97.7065,69.6306 97.4035,70.0306C97.0955,70.4316 96.7665,70.8216 96.4135,71.1836C96.3165,71.2836 96.1025,71.2746 95.9425,71.3146C95.9835,71.1506 95.9815,70.9556 96.0725,70.8256C96.3995,70.3626 96.7685,69.9236 97.1025,69.4626C97.4935,68.9246 97.7855,68.2826 98.2685,67.8456C99.2715,66.9386 100.014,65.8196 100.916,64.8326C101.312,64.4016 101.677,63.9286 101.983,63.4286C102.225,63.0376 102.344,62.5756 102.529,62.1496C102.65,61.8726 102.808,61.6126 102.921,61.3306C103.177,60.6916 103.391,60.0326 103.667,59.4016C104.076,58.4666 104.548,57.5636 104.946,56.6256C105.457,55.4316 106.398,54.5406 107.09,53.4746C107.141,53.3996 107.189,53.3196 107.246,53.2466C107.591,52.8186 107.933,52.3876 108.28,51.9616C108.558,51.6216 108.796,51.2806 108.862,50.8196C108.905,50.5316 109.065,50.2516 109.208,49.9886C109.55,49.3546 109.922,48.7346 110.268,48.1016C110.388,47.8806 110.489,47.6476 110.562,47.4086C110.903,46.3256 111.504,45.3666 111.966,44.3446C112.195,43.8396 112.232,43.2446 112.328,42.6886C112.453,41.9556 112.529,41.2176 112.669,40.4906C112.798,39.8096 112.938,39.1226 113.16,38.4676C113.427,37.6786 113.786,36.9226 114.1,36.1506C114.221,35.8476 114.308,35.5306 114.436,35.2326C114.885,34.2126 115.362,33.2036 115.79,32.1786C115.897,31.9186 115.906,31.6026 115.891,31.3156C115.862,30.8476 116.001,30.4996 116.454,30.3476C116.612,30.2926 116.841,30.2826 116.97,30.3616C117.689,30.7966 118.105,31.4266 118.088,32.2966C118.079,32.7566 118.078,33.2166 118.093,33.6766C118.096,33.8116 118.167,33.9426 118.207,34.0766C118.339,34.0296 118.48,33.9946 118.605,33.9306C119.04,33.6996 119.316,33.3316 119.577,32.9166C119.844,32.4926 120.22,32.1376 120.549,31.7506C121.385,30.7806 122.201,29.7956 123.061,28.8466C123.416,28.4526 123.855,28.1316 124.266,27.7916C124.605,27.5136 124.96,27.2446 125.321,26.9866C125.725,26.6956 126.135,26.7836 126.565,26.9616C126.766,27.0436 127.016,27.0706 127.232,27.0336C127.869,26.9296 128.388,27.3266 128.379,27.9786C128.37,28.4766 128.388,28.9406 128.713,29.3776C128.852,29.5716 128.852,29.9076 128.828,30.1706C128.778,30.6546 128.668,31.1166 129.177,31.4496C129.439,31.6176 129.434,31.8396 129.286,32.1326C129.078,32.5486 128.948,33.0076 128.79,33.4526C128.627,33.9176 128.499,34.4016 128.3,34.8536C128.109,35.2846 127.839,35.6806 127.624,36.1016C127.405,36.5196 127.214,36.9506 127,37.3706C126.868,37.6296 126.716,37.8766 126.566,38.1226C126.261,38.6306 125.95,39.1336 125.641,39.6386C125.48,39.8996 125.308,40.1496 125.178,40.4226C125.031,40.7306 124.95,41.0626 124.806,41.3676C124.7,41.5906 124.54,41.7916 124.399,41.9986C124.189,42.3056 123.999,42.6276 123.756,42.9056C123.374,43.3446 122.978,43.7766 122.543,44.1656C122.099,44.5696 121.606,44.9236 121.124,45.2856C120.436,45.8046 119.73,46.2936 119.049,46.8246C118.797,47.0206 118.566,47.2676 118.388,47.5336C118.088,47.9786 117.928,48.5026 117.708,48.9796C117.438,49.5676 117.486,50.1876 117.232,50.7646C116.864,51.6036 116.688,52.5256 116.367,53.3906C116.083,54.1566 115.71,54.8866 115.391,55.6386C115.249,55.9736 115.055,56.3216 115.043,56.6676C115.016,57.3676 114.492,57.7586 114.194,58.2886C114.04,58.5616 113.903,58.8426 113.757,59.1186C113.344,59.9086 113.01,60.7276 112.802,61.6016C112.72,61.9496 112.484,62.2616 112.321,62.5906C112.242,62.7516 112.127,62.9096 112.095,63.0826C111.924,64.0236 111.662,64.9236 111.207,65.7706C111.004,66.1496 110.874,66.5676 110.707,66.9656C110.677,67.0356 110.629,67.1016 110.585,67.1646C110.35,67.4816 110.089,67.7816 109.885,68.1166C109.279,69.1026 108.737,70.1176 108.189,71.1386C107.614,72.2116 106.988,73.2746 106.162,74.2156C105.222,75.2866 104.439,76.4976 103.565,77.6286C103.385,77.8626 103.096,78.0126 102.864,78.2066C102.492,78.5196 102.136,78.8486 101.752,79.1486C101.575,79.2866 101.329,79.3456 101.165,79.4936C101.037,79.6086 100.915,79.8146 100.927,79.9676C100.945,80.2146 101.186,80.2016 101.347,80.1066C101.642,79.9326 101.917,79.7206 102.197,79.5216C102.589,79.2436 102.976,78.9626 103.362,78.6806C103.629,78.4876 103.838,78.6006 103.939,78.8406C104.487,80.1586 104.524,81.5376 104.231,82.9026C104.026,83.8566 103.808,84.7776 104.056,85.7516C104.238,86.4626 104.413,87.1796 104.528,87.9026C104.567,88.1536 104.431,88.4366 104.349,88.6986C104.331,88.7516 104.166,88.8166 104.115,88.7886C104.026,88.7416 103.933,88.6356 103.912,88.5366C103.762,87.8686 103.629,87.1976 103.498,86.5266C103.385,85.9436 103.216,85.3636 103.195,84.7766C103.177,84.3006 103.345,83.8166 103.421,83.3346C103.472,83.0276 103.579,82.7036 103.529,82.4106C103.439,81.8926 102.65,81.4956 102.101,81.5906C101.1,81.7616 100.225,82.1976 99.5475,82.9306C99.0675,83.4486 98.7065,84.0786 98.3185,84.6796C98.1715,84.9056 98.0985,85.1796 97.9855,85.4306C97.6905,86.0996 97.8835,86.7556 98.0195,87.4166C98.0715,87.6666 98.2085,88.0016 97.9025,88.1266C97.5985,88.2536 97.3465,88.0376 97.2045,87.7416C97.1535,87.6356 97.0625,87.5316 97.0595,87.4236C97.0485,86.7476 96.7295,86.0666 97.1245,85.3906C97.2365,85.1986 97.2215,84.9296 97.2535,84.6946C97.3495,84.0136 97.4535,83.3296 97.5345,82.6476C97.6375,81.7606 98.1285,81.1406 98.8055,80.5986C99.2255,80.2636 99.5565,79.8206 99.9375,79.4346C100.672,78.6936 101.435,77.9786 102.142,77.2126C102.629,76.6886 103.046,76.0986 103.49,75.5346C103.951,74.9506 104.421,74.3766 104.856,73.7756C105.249,73.2306 105.583,72.6406 105.981,72.0976C106.335,71.6166 106.746,71.1766 107.118,70.7066C107.268,70.5126 107.377,70.2846 107.511,70.0756C107.782,69.6426 108.056,69.2066 108.329,68.7746C108.357,68.7306 108.418,68.6956 108.425,68.6496C108.469,68.3886 108.499,68.1256 108.535,67.8666C108.296,67.8986 108.058,67.9266 107.821,67.9656C107.706,67.9836 107.579,68.0666 107.481,68.0376C107.358,68.0046 107.26,67.8876 107.149,67.8046C107.216,67.7196 107.266,67.6046 107.355,67.5536C107.922,67.2156 108.51,66.9156 109.061,66.5596C109.484,66.2886 109.881,65.9926 110.01,65.4326C110.093,65.0726 110.332,64.7496 110.5,64.4086C110.54,64.3256 110.59,64.2456 110.624,64.1596C110.858,63.5376 111.088,62.9156 111.316,62.2916C111.576,61.5946 111.81,60.8826 112.1,60.1956C112.38,59.5286 112.708,58.8826 113.028,58.2346C113.436,57.4056 113.886,56.5956 114.266,55.7526C114.731,54.7146 115.153,53.6576 115.57,52.5986C115.829,51.9406 116.067,51.2726 116.272,50.5966C116.427,50.0826 116.486,49.5416 116.638,49.0296C116.793,48.5126 117.029,48.0236 117.19,47.5066C117.242,47.3476 117.232,47.0896 117.135,46.9796C116.766,46.5536 116.333,46.1836 115.959,45.7616C115.863,45.6556 115.829,45.4066 115.886,45.2706C115.966,45.0786 116.142,45.0896 116.358,45.1906C116.772,45.3876 117.208,45.5706 117.654,45.6456C117.87,45.6836 118.143,45.4856 118.365,45.3506C118.925,45.0156 119.493,44.6866 120.01,44.2896C120.242,44.1136 120.339,43.7686 120.525,43.5206C120.629,43.3806 120.788,43.2076 120.933,43.1996C121.067,43.1906 121.261,43.3456 121.349,43.4816C121.516,43.7456 121.685,43.7606 121.873,43.5516C122.631,42.7036 123.522,41.9606 123.975,40.8746C124.088,40.5976 124.105,40.2716 124.257,40.0206C124.543,39.5476 124.874,39.0966 125.228,38.6696C125.667,38.1456 125.912,37.5266 126.203,36.9226C126.502,36.3016 126.868,35.7096 127.166,35.0866C127.363,34.6806 127.469,34.2266 127.66,33.8156C127.883,33.3366 128.02,32.8466 127.999,32.3206C127.992,32.0826 128.002,31.7866 127.874,31.6256C127.627,31.3246 127.617,31.0566 127.786,30.7516C127.976,30.4046 127.936,30.1136 127.614,29.8746C127.316,29.6576 127.191,29.3776 127.24,29.0056C127.27,28.7926 127.236,28.5746 127.25,28.3596C127.272,28.0556 127.123,27.9916 126.857,28.0086C126.588,28.0266 126.296,28.0666 126.044,27.9916C125.654,27.8756 125.364,28.0046 125.111,28.2476C124.242,29.0746 123.374,29.9046 122.525,30.7516C122.162,31.1186 121.847,31.5396 121.499,31.9266C121.109,32.3586 120.589,32.7216 120.339,33.2206C120.034,33.8276 119.573,34.2446 119.038,34.5186C118.113,34.9886 117.683,35.8396 117.144,36.6196C117.111,36.6686 117.113,36.7506 117.115,36.8166C117.124,37.1336 116.994,37.3456 116.656,37.3246C116.32,37.3036 116.136,37.0356 116.159,36.7536C116.189,36.3956 116.325,36.0396 116.446,35.6956C116.626,35.1896 116.841,34.6946 117.029,34.1916C117.109,33.9836 117.127,33.7486 117.222,33.5496C117.471,33.0276 117.322,32.4986 117.258,31.9766C117.248,31.8886 117.071,31.8206 116.974,31.7416C116.909,31.8296 116.82,31.9096 116.787,32.0076C116.638,32.4426 116.522,32.8876 116.362,33.3156C116.257,33.5946 116.094,33.8516 115.966,34.1206C115.647,34.8016 115.3,35.4726 115.029,36.1706C114.832,36.6826 114.766,37.2416 114.591,37.7626C114.451,38.1796 114.222,38.5666 114.056,38.9766C113.874,39.4236 113.606,39.8766 113.576,40.3416C113.511,41.3196 113.309,42.3106 113.625,43.2866C113.832,43.9266 114.02,44.5706 114.51,45.0716C114.6,45.1616 114.691,45.2956 114.694,45.4126C114.697,45.5756 114.659,45.7806 114.558,45.8886C114.499,45.9466 114.222,45.8926 114.135,45.8016C113.828,45.4886 113.556,45.1406 113.278,44.7996C113.075,44.5516 112.903,44.5846 112.745,44.8456" style=""/>
    <path d="M89.5394,80.0672C89.6074,79.1212 89.8854,78.2662 90.2824,77.4362C90.6294,76.7132 91.0784,76.0512 91.6494,75.5042C92.2184,74.9632 92.8554,74.4882 93.5044,74.0402C94.0534,73.6592 94.6614,73.3622 95.2394,73.0212C95.7904,72.6992 96.3374,72.3682 96.8854,72.0372C96.9754,71.9832 97.0734,71.9272 97.1394,71.8502C97.8574,71.0112 98.5534,70.1502 99.2904,69.3292C99.9984,68.5422 100.746,67.7882 101.486,67.0292C101.57,66.9432 101.715,66.8852 101.838,66.8712C101.923,66.8592 102.086,66.9332 102.096,66.9902C102.113,67.0882 102.068,67.2322 101.997,67.3042C101.312,68.0092 100.571,68.6672 99.9334,69.4102C99.3084,70.1382 98.8404,71.0042 98.2024,71.7162C97.5964,72.3932 96.8994,73.0052 96.1714,73.5512C95.3454,74.1742 94.4624,74.7312 93.5644,75.2482C92.8704,75.6502 92.2464,76.1232 91.8234,76.7892C91.4644,77.3512 91.2574,78.0082 90.9174,78.5882C90.6134,79.1042 90.4964,79.6372 90.5274,80.2202C90.5534,80.7162 90.5904,81.2102 90.6014,81.7052C90.6044,81.8232 90.5274,81.9432 90.4854,82.0622C90.3664,81.9942 90.2084,81.9552 90.1344,81.8522C89.7434,81.3182 89.6044,80.6922 89.5394,80.0672" style=""/>
    <path d="M106.918,69.2665C106.861,69.4655 106.846,69.6915 106.739,69.8595C106.096,70.8735 105.457,71.8915 104.766,72.8725C104.41,73.3765 103.941,73.8005 103.541,74.2745C103.194,74.6875 102.885,75.1305 102.537,75.5435C101.726,76.5025 100.928,77.4765 99.8758,78.1915C99.2678,78.6045 98.6368,78.9805 98.0268,79.3885C97.5658,79.6965 97.1278,80.0375 96.6668,80.3465C96.5498,80.4235 96.3888,80.4365 96.2528,80.4765C96.0338,79.8295 96.5028,79.5515 96.8398,79.3135C98.0768,78.4485 99.1458,77.4035 100.201,76.3405C100.512,76.0265 100.898,75.7845 101.208,75.4685C101.425,75.2455 101.56,74.9405 101.76,74.6985C102.452,73.8555 103.147,73.0135 103.862,72.1895C104.563,71.3825 105.281,70.5925 106.004,69.8055C106.224,69.5645 106.481,69.3565 106.721,69.1345C106.787,69.1785 106.852,69.2215 106.918,69.2665" style=""/>
    <path d="M119.546,38.9442C119.719,39.8422 119.288,40.7422 118.807,41.6112C118.628,41.9362 118.335,42.2022 118.07,42.4752C118.022,42.5252 117.829,42.5222 117.782,42.4692C117.716,42.4002 117.675,42.2402 117.711,42.1522C117.839,41.8242 117.978,41.4932 118.157,41.1912C118.562,40.5142 118.569,39.7572 118.653,39.0132C118.715,38.4462 118.74,37.8752 118.824,37.3112C118.889,36.8852 119.162,36.7562 119.601,36.8232C119.851,36.8632 120.127,36.8912 120.363,36.8262C120.998,36.6532 121.538,36.8762 122.051,37.1832C122.184,37.2632 122.253,37.5012 122.286,37.6792C122.296,37.7522 122.126,37.9352 122.046,37.9302C121.886,37.9192 121.719,37.8362 121.577,37.7442C121.054,37.4112 120.496,37.1942 119.869,37.2632C119.601,37.2952 119.556,37.5572 119.55,37.7822C119.538,38.1202 119.546,38.4582 119.546,38.9442" style=""/>
    <path d="M84.8866,77.0575C84.7116,77.0685 84.5326,77.0565 84.3636,77.0955C84.0466,77.1685 83.7386,77.2925 83.4176,77.3525C83.3376,77.3685 83.1836,77.2455 83.1416,77.1515C83.1066,77.0635 83.1356,76.8845 83.2056,76.8285C83.3216,76.7315 83.4886,76.6935 83.6376,76.6445C84.3706,76.3975 85.1026,76.1495 85.8406,75.9185C85.9836,75.8735 86.2546,75.8565 86.2866,75.9195C86.3606,76.0595 86.3876,76.2995 86.3126,76.4255C86.1006,76.7775 85.8496,77.1125 85.5736,77.4135C85.0486,77.9825 84.6106,78.6025 84.2856,79.3055C84.0656,79.7805 83.8126,80.2395 83.5886,80.7145C83.4676,80.9745 83.2826,81.1145 83.0216,80.9855C82.7536,80.8545 82.7616,80.5815 82.8866,80.3585C83.3496,79.5285 83.8186,78.6995 84.3176,77.8915C84.4796,77.6265 84.7406,77.4245 84.9566,77.1935C84.9326,77.1485 84.9096,77.1035 84.8866,77.0575" style=""/>
    <path d="M125.859,28.8417C125.848,29.0237 125.905,29.2527 125.815,29.3807C124.959,30.5897 124.055,31.7647 123.222,32.9847C122.896,33.4647 122.675,34.0287 122.474,34.5767C122.298,35.0657 122.3,35.1027 121.792,35.0047C121.63,34.9757 121.455,35.0137 121.3,34.9647C120.889,34.8327 120.828,34.5737 121.124,34.2557C121.325,34.0367 121.534,33.8237 121.753,33.6267C122.568,32.9007 123.171,32.0127 123.765,31.1097C124.203,30.4487 124.709,29.8327 125.203,29.2127C125.332,29.0517 125.533,28.9477 125.697,28.8207C125.751,28.8267 125.804,28.8337 125.859,28.8417" style=""/>
    <path d="M127.117,30.6376C127.049,30.8186 127.014,30.9916 126.926,31.1326C126.384,32.0076 125.841,32.8836 125.274,33.7426C124.982,34.1856 124.611,34.5736 124.33,35.0196C124.12,35.3576 123.98,35.7436 123.845,36.1216C123.723,36.4576 123.57,36.5186 123.311,36.2706C123.193,36.1586 123.082,36.0396 122.965,35.9256C122.609,35.5696 122.581,35.3876 123.013,35.1426C123.688,34.7566 123.956,34.0466 124.429,33.5076C125.042,32.8106 125.537,32.0086 126.074,31.2456C126.251,30.9906 126.381,30.6966 126.568,30.4476C126.641,30.3546 126.825,30.2856 126.942,30.3086C127.016,30.3246 127.059,30.5196 127.117,30.6376" style=""/>
    <path d="M120.634,73.0585C120.54,73.4965 120.449,73.9345 120.35,74.3715C120.194,75.0565 120.058,75.7495 119.863,76.4235C119.714,76.9465 119.498,77.4505 119.296,77.9565C119.149,78.3295 119.002,78.7045 118.81,79.0535C118.715,79.2285 118.536,79.3795 118.362,79.4805C118.229,79.5565 118.044,79.5335 117.883,79.5535C117.866,79.3295 117.751,79.0245 117.855,78.8965C118.337,78.2995 118.65,77.6485 118.835,76.9025C118.969,76.3625 119.267,75.8645 119.428,75.3295C119.613,74.7165 119.711,74.0805 119.876,73.4635C119.959,73.1635 120.106,72.8815 120.241,72.6005C120.266,72.5505 120.384,72.5125 120.447,72.5255C120.505,72.5405 120.576,72.6235 120.59,72.6875C120.613,72.8065 120.597,72.9305 120.597,73.0515C120.609,73.0545 120.621,73.0565 120.634,73.0585" style=""/>
    <path d="M123.634,37.5126C123.86,37.1576 123.994,36.8306 124.223,36.6006C124.995,35.8236 125.48,34.8846 125.898,33.8896C126.053,33.5196 126.326,33.1946 126.576,32.8726C126.639,32.7926 126.82,32.8066 126.946,32.7776C126.971,32.9036 127.049,33.0476 127.011,33.1516C126.879,33.5306 126.692,33.8886 126.551,34.2646C126.366,34.7636 126.203,35.2736 126.032,35.7806C126.001,35.8666 126.004,35.9906 125.942,36.0346C125.315,36.5256 125.192,37.3166 124.786,37.9366C124.678,38.1016 124.323,38.3156 124.274,38.2756C124.036,38.0796 123.864,37.8036 123.634,37.5126" style=""/>
    <path d="M82.8265,68.9002C82.8265,69.3112 82.8455,69.5962 82.8185,69.8772C82.8055,70.0022 82.7025,70.1162 82.6395,70.2362C82.5365,70.1432 82.3795,70.0702 82.3415,69.9572C82.2115,69.5562 82.1465,69.1372 82.0105,68.7422C81.8605,68.3102 81.6585,67.8992 81.4835,67.4762C81.3055,67.0482 81.1255,66.6222 80.9725,66.1852C80.9455,66.1032 81.0325,65.9032 81.0925,65.8892C81.2015,65.8682 81.3775,65.9092 81.4435,65.9922C81.7675,66.3922 82.0865,66.7992 82.3665,67.2312C82.7175,67.7722 82.9825,68.3502 82.8265,68.9002" style=""/>
    <path d="M103.09,66.1249C103.121,65.6319 103.455,65.4699 103.762,65.2929C104.283,64.9929 104.846,64.8139 105.454,64.8119C105.775,64.8109 106.106,64.7949 106.411,64.8689C106.547,64.9019 106.724,65.1519 106.715,65.2929C106.702,65.4609 106.541,65.6629 106.388,65.7659C106.25,65.8549 105.98,65.9189 105.862,65.8449C105.062,65.3399 104.361,65.7689 103.636,66.0249C103.472,66.0839 103.29,66.0909 103.09,66.1249" style=""/>
    <path d="M114.683,42.0799C114.719,41.9299 114.766,41.6419 114.863,41.3719C114.898,41.2729 115.051,41.1629 115.156,41.1579C115.247,41.1549 115.392,41.2729 115.431,41.3689C115.506,41.5589 115.594,41.7879 115.551,41.9729C115.437,42.4549 115.662,42.8289 115.836,43.2349C115.911,43.4109 115.903,43.6219 115.932,43.8179C115.757,43.7889 115.556,43.8069 115.413,43.7239C115.003,43.4849 114.681,42.7739 114.683,42.0799" style=""/>
    <path d="M118.62,74.2694C118.962,74.4674 118.938,74.6984 118.821,74.9524C118.642,75.3384 118.573,75.8034 118.123,75.9964C118.014,76.0444 117.863,76.0004 117.731,75.9984C117.748,75.8664 117.737,75.7184 117.795,75.6064C117.978,75.2634 118.184,74.9294 118.388,74.5974C118.453,74.4854 118.536,74.3864 118.62,74.2694" style=""/>
    <path d="M117.402,74.4325C117.228,75.0565 117.095,75.6165 116.629,76.0165C116.568,76.0715 116.419,76.0725 116.336,76.0375C116.276,76.0145 116.227,75.8875 116.228,75.8075C116.235,75.4485 116.937,74.5785 117.402,74.4325" style=""/>
    <path d="M177.197,47.8299C177.553,48.0449 177.564,48.2569 177.414,48.4449C176.885,49.0979 176.752,49.9179 176.429,50.6579C176.318,50.9069 176.17,51.1429 176.036,51.3809C175.569,52.1929 175.637,53.1399 175.376,53.9969C175.238,54.4509 174.95,54.8709 174.668,55.2649C174.156,55.9819 173.513,56.5719 172.718,56.9709C172.565,57.0489 172.357,57.0179 172.181,57.0379C172.148,57.0029 172.113,56.9659 172.084,56.9309C172.263,56.6579 172.454,56.3879 172.625,56.1079C173.065,55.3839 173.534,54.6689 173.931,53.9219C174.201,53.4229 174.36,52.8699 174.591,52.3489C174.701,52.0989 174.861,51.8699 174.983,51.6269C175.452,50.6879 175.889,49.7349 176.389,48.8159C176.592,48.4509 176.925,48.1559 177.197,47.8299" style=""/>
    <path d="M154.658,72.4501C154.834,72.1141 154.959,71.7471 155.19,71.4601C155.51,71.0551 155.922,70.7261 156.274,70.3461C156.631,69.9531 156.953,69.5191 157.317,69.1351C157.854,68.5661 158.429,68.0351 158.97,67.4711C159.256,67.1761 159.499,66.8391 159.779,66.5371C159.934,66.3681 160.106,66.1871 160.305,66.0961C160.44,66.0371 160.711,66.0701 160.787,66.1671C160.866,66.2651 160.845,66.5411 160.76,66.6571C160.44,67.0821 160.084,67.4801 159.721,67.8751C158.717,68.9701 157.699,70.0551 156.696,71.1511C156.237,71.6461 155.806,72.1661 155.339,72.6501C155.236,72.7571 155.04,72.8071 154.885,72.8071C154.819,72.8071 154.755,72.6091 154.658,72.4501" style=""/>
    <path d="M174.817,48.3143C174.728,48.8923 174.52,49.3283 174.089,49.6523C174.061,49.6763 174.017,49.6893 173.992,49.7193C173.19,50.7883 172.382,51.8533 171.594,52.9333C171.323,53.2993 171.087,53.6933 170.865,54.0933C170.723,54.3523 170.663,54.6563 170.52,54.9173C170.443,55.0583 170.295,55.1823 170.146,55.2513C170.04,55.3003 169.827,55.2933 169.769,55.2233C169.692,55.1283 169.66,54.9173 169.715,54.8113C170.128,54.0193 170.522,53.2103 171.012,52.4653C171.397,51.8823 171.912,51.3813 172.375,50.8463C172.769,50.3923 173.198,49.9653 173.551,49.4843C173.742,49.2303 173.811,48.8903 173.931,48.5863C173.987,48.4523 174.002,48.2963 174.076,48.1813C174.184,48.0153 174.336,47.8783 174.469,47.7303C174.588,47.9253 174.703,48.1183 174.817,48.3143" style=""/>
    <path d="M178.472,45.2958C178.286,45.3418 178.101,45.3978 177.917,45.4348C177.3,45.5538 176.647,45.5738 176.076,45.8088C175.583,46.0128 175.187,46.4528 174.751,46.7938C174.702,46.8318 174.692,46.9288 174.641,46.9508C174.499,47.0148 174.344,47.0568 174.191,47.1048C174.147,46.9288 174.003,46.6908 174.071,46.5878C174.288,46.2558 174.532,45.8998 174.853,45.6928C175.431,45.3258 176.051,45.0158 176.689,44.7728C177.059,44.6318 177.504,44.6048 177.898,44.6568C178.129,44.6888 178.32,44.9818 178.532,45.1568C178.514,45.2018 178.491,45.2498 178.472,45.2958" style=""/>
    <path d="M190.996,15.2206C191.516,15.3236 192.03,15.4096 192.542,15.5306C193.087,15.6586 193.401,16.0586 193.638,16.5326C193.758,16.7786 193.628,17.1066 193.35,17.2056C193.062,17.3116 192.982,17.0966 192.906,16.8866C192.708,16.3836 192.16,16.0126 191.613,16.0116C191.37,16.0116 191.129,16.0066 190.888,16.0126C190.644,16.0186 190.367,15.9946 190.413,15.6926C190.44,15.5366 190.705,15.4166 190.866,15.2866C190.89,15.2676 190.945,15.2836 190.985,15.2836C190.99,15.2626 190.994,15.2416 190.996,15.2206" style=""/>
    <path d="M190.665,13.1542C190.721,12.9052 190.756,12.7512 190.793,12.5982C190.846,12.3892 190.89,12.1722 191.191,12.2032C191.498,12.2362 191.6,12.4712 191.595,12.7082C191.585,13.0752 191.645,13.3962 191.929,13.6452C192.071,13.7732 192.229,13.8832 192.38,14.0022C192.524,14.1182 192.697,14.2162 192.8,14.3602C192.851,14.4412 192.812,14.6362 192.748,14.7292C192.692,14.8042 192.489,14.8682 192.42,14.8262C191.936,14.5342 191.436,14.2532 191.014,13.8882C190.812,13.7172 190.76,13.3662 190.665,13.1542" style=""/>
    <path d="M208.223,3.60434C208.228,4.00834 207.754,4.46534 207.352,4.40534C207.271,4.39334 207.127,4.13434 207.159,4.08334C207.327,3.81334 207.512,3.54634 207.746,3.34034C207.966,3.14534 208.216,3.30134 208.223,3.60434" style=""/>
    <path d="M206.893,3.67564C206.728,3.89564 206.595,4.12164 206.412,4.30264C206.349,4.36264 206.112,4.34464 206.057,4.27764C205.981,4.18464 205.939,3.97864 205.992,3.87964C206.101,3.67664 206.277,3.50664 206.442,3.33564C206.483,3.29764 206.618,3.28764 206.655,3.32164C206.743,3.40964 206.798,3.53064 206.893,3.67564" style=""/>
    <path d="M78.6117,70.6463C78.4797,70.5393 78.3337,70.4753 78.2927,70.3723C78.2537,70.2643 78.2727,70.0633 78.3467,69.9993C78.8247,69.5773 79.3987,69.3663 80.0357,69.3663C80.0927,69.3663 80.2137,69.6953 80.1997,69.7023C79.6937,70.0203 79.1737,70.3203 78.6117,70.6463" style=""/>
    <path d="M72.7079,72.3846C72.5479,72.5226 72.4139,72.7146 72.3209,72.6976C72.1879,72.6736 72.0839,72.4906 71.9679,72.3776C72.1149,72.2326 72.2609,72.0896 72.4089,71.9446C72.4959,72.0706 72.5829,72.1996 72.7079,72.3846" style=""/>
    <path d="M90.5829,69.3661C90.5829,71.7001 88.6909,73.5931 86.3569,73.5931C84.0259,73.5931 82.1329,71.7001 82.1329,69.3661C82.1329,67.0331 84.0259,65.1411 86.3569,65.1411C88.6909,65.1411 90.5829,67.0331 90.5829,69.3661" style=""/>
    <path d="M92.0995,58.3299C92.0995,58.3299 92.1825,59.6559 87.5305,65.3089C82.8785,70.9609 87.3015,65.4199 87.3015,65.4199L89.2215,66.8679C89.2215,66.8679 93.7275,63.0289 94.1125,59.9599C94.1125,59.9599 94.0745,58.0769 92.0995,58.3299" style=""/>
</svg>
